<ttFont>
          <CharString index="0">
            254 -107 callgsubr
            return
          </CharString>
          <CharString index="1">
            392 755 -90 callgsubr
            41 38 -3 27 hhcurveto
            -85 -134 -147 -299 -61 -102 rrcurveto
            -102 -61 -16 -12 -63 -38 callgsubr
            62 hlineto
            88 74 48 104 76 hvcurveto
            26 36 19 45 26 50 rrcurveto
            182 hlineto
            return
          </CharString>
          <CharString index="2">
            -105 callgsubr
            endchar
          </CharString>
          <CharString index="3">
            -87 callgsubr
            14 -17 rcurveline
            31 36 40 45 53 34 21 13 27 11 15 3 rrcurveto
            return
          </CharString>
          <CharString index="4">
            rmoveto
            -58 -14 -42 -42 -44 -48 10 -9 rcurveline
            53 45 13 9 40 20 32 -10 49 -39 28 -27 35 33 rcurveline
            -23 24 -61 45 -32 13 rrcurveto
            endchar
          </CharString>
          <CharString index="5">
            -27 callsubr
            -7 -121 -39 -253 rrcurveto
            -6 -35 -3 -36 -34 vvcurveto
            -89 24 -71 71 83 129 129 128 47 vhcurveto
            5 hlineto
            -6 -36 -6 -41 -38 vvcurveto
            -75 22 -65 81 -1 vhcurveto
            -73 callgsubr
            -26 hhcurveto
            -34 -36 24 66 8 1 9 1 10 hvcurveto
            23 171 34 179 9 callgsubr
            return
          </CharString>
          <CharString index="6">
            383 -20 callsubr
            -43 -30 -49 -12 -54 3 rlinecurve
            -237 2 -4 8 -99 callsubr
            return
          </CharString>
          <CharString index="7">
            -66 callsubr
            -30 callgsubr
            61 -30 101 -52 25 vhcurveto
            -84 callgsubr
            return
          </CharString>
          <CharString index="8">
            50 48 17 34 7 callgsubr
            11 68 -77 callgsubr
            -39 -33 4 -46 hhcurveto
            -14 hlineto
            -65 callsubr
            return
          </CharString>
          <CharString index="9">
            -101 callsubr
            46 callgsubr
            -2 callsubr
            return
          </CharString>
          <CharString index="10">
            rmoveto
            -99 callgsubr
          </CharString>
          <CharString index="11">
            hstem
            38 25 callsubr
            397 -103 callgsubr
            return
          </CharString>
          <CharString index="12">
            -138 -79 -43 -111 -143 vvcurveto
            69 54 rlineto
            return
          </CharString>
          <CharString index="13">
            -80 callsubr
            hintmask 10111100
            -48 callsubr
            hintmask 11011100
            -88 callgsubr
            return
          </CharString>
          <CharString index="14">
            hstem
            -62 callsubr
            -25 -188 -13 -98 -15 -99 22 -73 rlinecurve
            -43 callgsubr
            -23 -142 -12 -90 -64 callgsubr
            20 146 11 116 23 114 -33 callgsubr
            -60 -58 -4 10 rcurveline
            -5 138 30 157 28 144 rrcurveto
            return
          </CharString>
          <CharString index="15">
            71 30 110 -57 callgsubr
            -10 22 callgsubr
            return
          </CharString>
          <CharString index="16">
            23 25 -2 -4 14 hvcurveto
            -66 -114 -193 -39 -49 vhcurveto
            -15 -11 -32 -53 -12 hhcurveto
            -4 12 -2 21 25 vvcurveto
            66 11 91 0 vhcurveto
            return
          </CharString>
          <CharString index="17">
            243 -100 callsubr
            return
          </CharString>
          <CharString index="18">
            16 callsubr
            -97 callgsubr
            return
          </CharString>
          <CharString index="19">
            -79 callgsubr
            -5 -145 56 callgsubr
            -84 callsubr
            return
          </CharString>
          <CharString index="20">
            11 callgsubr
            -106 callgsubr
            return
          </CharString>
          <CharString index="21">
            98 38 -51 107 hhcurveto
            14 15 1 2 17 hvcurveto
            -129 -191 -189 -202 -209 -222 -7 callsubr
            -193 132 -37 callsubr
            -157 -107 175 -162 hhcurveto
            -4 8 166 106 216 388 171 156 rlinecurve
            -7 7 rlineto
            -28 -62 -45 -9 -38 hhcurveto
            return
          </CharString>
          <CharString index="22">
            -89 callgsubr
            70 51 rlineto
            -30 -192 -32 -118 return
          </CharString>
          <CharString index="23">
            -72 callsubr
            -8 rcurveline
            return
          </CharString>
          <CharString index="24">
            -21 callsubr
            -92 callsubr
            -83 -98 -61 -44 return
          </CharString>
          <CharString index="25">
            190 -10 callsubr
            hstemhm
            -9 69 hintmask 10111000
            321 -88 callsubr
            hintmask 01111000
            -98 callsubr
            return
          </CharString>
          <CharString index="26">
            -46 -4 -16 -28 -98 callgsubr
            177 47 65 134 vhcurveto
            return
          </CharString>
          <CharString index="27">
            -44 callgsubr
            209 118 89 139 vhcurveto
            -47 -61 -5 -147 -72 callgsubr
            return
          </CharString>
          <CharString index="28">
            -22 -163 -19 -158 -25 -158 -17 -108 19 -58 -125 -52 11 -21 rcurveline
            209 123 -8 17 -24 -15 -22 -16 -32 -17 rlinecurve
            -5 5 44 53 -3 38 return
          </CharString>
          <CharString index="29">
            hstem
            5 53 callgsubr
            -90 callsubr
            return
          </CharString>
          <CharString index="30">
            rmoveto
            41 -47 57 -40 32 -13 -73 callsubr
            return
          </CharString>
          <CharString index="31">
            rmoveto
            -120 -94 4 callgsubr
            43 64 88 vhcurveto
            59 -73 70 -310 47 -181 rrcurveto
            -191 -101 -53 -82 -68 hhcurveto
            -54 -45 34 26 -28 hvcurveto
            -58 -42 51 -40 64 -35 52 -7 rlinecurve
            136 62 64 83 160 300 rrcurveto
            36 68 183 306 57 vvcurveto
            return
          </CharString>
          <CharString index="32">
            -48 -59 hvcurveto
            -94 -77 -33 -110 47 callgsubr
            -35 callsubr
            return
          </CharString>
          <CharString index="33">
            23 callsubr
            -5 0 -5 -5 vvcurveto
            -27 11 -24 24 -16 vhcurveto
            31 125 18 137 59 103 rrcurveto
            87 50 32 31 47 hhcurveto
            21 -66 callgsubr
            -84 -80 -79 -98 -48 vhcurveto
            27 219 rlineto
            90 11 15 152 101 -86 callgsubr
            return
          </CharString>
          <CharString index="34">
            58 14 62 59 44 48 -10 9 rcurveline
            -53 -45 -33 -26 -40 -20 -32 10 -45 34 -36 38 rrcurveto
            return
          </CharString>
          <CharString index="35">
            -12 -64 -23 -88 -80 -17 4 return
          </CharString>
          <CharString index="36">
            76 32 121 151 88 132 -10 6 rcurveline
            -68 -98 -93 return
          </CharString>
          <CharString index="37">
            -20 hstemhm
            hintmask 01011000
            -61 callgsubr
            hintmask 10011000
            -16 callsubr
            hintmask 00111000
            -49 callgsubr
            -46 -45 9 -28 hhcurveto
            return
          </CharString>
          <CharString index="38">
            750 rmoveto
            -87 -35 -4 -70 callgsubr
            return
          </CharString>
          <CharString index="39">
            -20 -3 callgsubr
            -47 -320 rlineto
            -63 callsubr
            return
          </CharString>
          <CharString index="40">
            -76 callsubr
            hintmask 11011000
            -25 callgsubr
            hintmask 10111000
            24 callgsubr
          </CharString>
          <CharString index="41">
            512 rmoveto
            -39 callsubr
            -66 27 -96 55 -25 vhcurveto
            return
          </CharString>
          <CharString index="42">
            34 215 2 12 4 12 4 10 rlinecurve
            72 114 -1 46 hhcurveto
            return
          </CharString>
          <CharString index="43">
            112 -86 callgsubr
            return
          </CharString>
          <CharString index="44">
            -158 -23 0 -128 -116 hhcurveto
            -30 -19 3 3 -14 hvcurveto
            -41 -64 rlineto
            -3 12 21 -2 16 hhcurveto
            119 105 126 256 35 hvcurveto
            return
          </CharString>
          <CharString index="45">
            154 -59 callgsubr
            return
          </CharString>
          <CharString index="46">
            185 -64 callsubr
            return
          </CharString>
          <CharString index="47">
            48 30 -37 45 hhcurveto
            51 12 32 23 36 47 callsubr
          </CharString>
          <CharString index="48">
            -69 callsubr
            15 callsubr
            65 -1 -28 -55 -6 -184 -46 callgsubr
            130 83 -245 27 callsubr
            return
          </CharString>
          <CharString index="49">
            -115 -54 callsubr
            return
          </CharString>
          <CharString index="50">
            5 callgsubr
            52 4 116 15 23 11 rrcurveto
            -36 -220 -33 -121 -17 callsubr
            0 -119 -7 -125 -10 vhcurveto
            29 callsubr
            -5 185 136 hhcurveto
            return
          </CharString>
          <CharString index="51">
            -76 callgsubr
            endchar
          </CharString>
          <CharString index="52">
            57 callgsubr
            -41 -35 -15 -20 -25 hvcurveto
            -41 -32 -33 -39 -37 vvcurveto
            -42 42 -45 32 -35 vhcurveto
            46 -50 31 -43 -42 vvcurveto
            -40 -51 -40 -38 -29 -36 14 17 -19 vhcurveto
            -50 -46 rlineto
            -18 16 27 -9 34 hhcurveto
            82 113 92 69 49 -26 41 -47 54 hvcurveto
            -31 35 -32 29 51 vvcurveto
            32 28 30 44 36 26 -14 -28 8 vhcurveto
            47 55 25 callgsubr
            return
          </CharString>
          <CharString index="53">
            vvcurveto
            -13 1 -21 callsubr
            return
          </CharString>
          <CharString index="54">
            -10 -2 -24 -35 -26 -30 10 -28 39 -28 18 -27 rrcurveto
            return
          </CharString>
          <CharString index="55">
            -13 1 -13 -29 callgsubr
            46 114 12 212 22 callsubr
            83 13 return
          </CharString>
          <CharString index="56">
            450 -45 callsubr
            37 51 rmoveto
            -119 -71 -82 -141 -34 hvcurveto
            -11 -46 -13 -73 14 callsubr
            159 50 84 29 callgsubr
            return
          </CharString>
          <CharString index="57">
            rmoveto
            -122 -107 -79 -105 hvcurveto
            -125 202 -137 -132 vvcurveto
            -62 -64 -71 -65 -47 -63 27 26 -41 vhcurveto
            -57 -64 rlineto
            -24 31 55 -22 66 hhcurveto
            138 108 127 147 hvcurveto
            118 -208 147 110 vvcurveto
            36 39 21 88 45 47 -11 -19 42 vhcurveto
            57 66 rlineto
            20 -54 -45 6 -45 hhcurveto
            endchar
          </CharString>
          <CharString index="58">
            169 27 178 21 127 return
          </CharString>
          <CharString index="59">
            -14 callgsubr
            36 33 54 65 50 callsubr
            rlineto
            return
          </CharString>
          <CharString index="60">
            -85 callgsubr
            endchar
          </CharString>
          <CharString index="61">
            rmoveto
            -33 -15 -31 -33 -38 vvcurveto
            -32 29 -24 35 46 31 45 42 27 -22 28 -55 vhcurveto
            20 -110 rmoveto
            -29 -28 21 16 hvcurveto
            3 16 12 21 17 9 rrcurveto
            return
          </CharString>
          <CharString index="62">
            rmoveto
            29 22 -4 -6 13 hvcurveto
            -42 -154 -73 -136 -83 -88 rrcurveto
            -7 21 -3 26 28 vvcurveto
            46 7 51 4 36 vhcurveto
            147 16 27 33 90 hhcurveto
            return
          </CharString>
          <CharString index="63">
            vhcurveto
            69 hlineto
            -11 -13 -7 -21 -3 -17 -25 -153 -36 -196 -38 -268 rrcurveto
            -127 -18 -57 -47 -8 callsubr
            102 27 100 119 13 67 -11 callsubr
            return
          </CharString>
          <CharString index="64">
            rmoveto
            -67 -90 -29 -69 -2 -16 5 -11 30 -46 32 -26 10 2 24 35 26 30 -10 28 -39 28 -18 27 rrcurveto
            13 12 23 41 61 vhcurveto
            return
          </CharString>
          <CharString index="65">
            66 44 155 108 92 vvcurveto
            28 -17 12 -34 return
          </CharString>
          <CharString index="66">
            515 rmoveto
            -69 -11 -64 -91 0 vvcurveto
            -2 -11 70 51 rlineto
            -30 -192 -32 -118 -4 callsubr
            45 112 11 198 22 callsubr
            return
          </CharString>
          <CharString index="67">
            -54 callgsubr
            -28 -287 -41 -221 -42 208 -73 242 -69 198 rrcurveto
            return
          </CharString>
          <CharString index="68">
            -126 -36 -112 -153 -145 vvcurveto
            return
          </CharString>
          <CharString index="69">
            rmoveto
            -1 -30 -4 -40 -7 -19 rrcurveto
            50 26 16 32 54 vvcurveto
            8 0 9 -1 8 vhcurveto
            return
          </CharString>
          <CharString index="70">
            hhcurveto
            74 72 44 64 18 hvcurveto
            -12 3 rlineto
            -41 -26 -29 -13 -30 return
          </CharString>
          <CharString index="71">
            50 3 hvcurveto
            -22 -162 -21 -147 -19 -149 -69 callgsubr
            23 165 14 122 11 92 52 4 return
          </CharString>
          <CharString index="72">
            27 24 13 11 29 19 rrcurveto
            return
          </CharString>
          <CharString index="73">
            759 rmoveto
            -173 -54 -145 -129 hvcurveto
            69 54 rlineto
            81 15 56 35 32 vhcurveto
            4 14 14 2 15 hhcurveto
            return
          </CharString>
          <CharString index="74">
            rmoveto
            60 20 -68 -41 -20 callgsubr
            hvcurveto
            return
          </CharString>
          <CharString index="75">
            196 51 150 235 208 vvcurveto
            return
          </CharString>
          <CharString index="76">
            vvcurveto
            -159 -92 -179 -134 -40 vhcurveto
            return
          </CharString>
          <CharString index="77">
            242 111 5 110 vhcurveto
            return
          </CharString>
          <CharString index="78">
            -10 -9 callgsubr
            return
          </CharString>
          <CharString index="79">
            rmoveto
            -163 -60 -146 -80 -122 -80 rrcurveto
            -10 vlineto
            103 -74 167 -89 177 -77 35 30 rcurveline
            -123 56 -126 66 -132 80 rrcurveto
            18 vlineto
            119 71 102 53 148 56 rrcurveto
            endchar
          </CharString>
          <CharString index="80">
            172 47 71 127 vhcurveto
            80 hlineto
            -35 -57 return
          </CharString>
          <CharString index="81">
            hhcurveto
            -27 -24 -6 callsubr
            return
          </CharString>
          <CharString index="82">
            rrcurveto
            83 13 5 -61 callsubr
            return
          </CharString>
          <CharString index="83">
            28 callsubr
            rrcurveto
            -106 25 -47 118 105 vvcurveto
            195 132 208 141 2 vhcurveto
            -4 callgsubr
          </CharString>
          <CharString index="84">
            vvcurveto
            114 39 83 106 48 vhcurveto
            return
          </CharString>
          <CharString index="85">
            rlinecurve
            -5 11 -30 46 -32 26 rrcurveto
            return
          </CharString>
          <CharString index="86">
            -13 1 callgsubr
            return
          </CharString>
          <CharString index="87">
            -1 -2 callgsubr
            rlinecurve
            -4 8 return
          </CharString>
          <CharString index="88">
            hhcurveto
            -4 8 49 47 19 35 7 callgsubr
            21 167 30 171 rrcurveto
            -17 callgsubr
            return
          </CharString>
          <CharString index="89">
            rmoveto
            -6 -78 -7 -74 -12 -96 rrcurveto
            -135 hlineto
            -3 4 61 64 64 95 36 85 rlinecurve
            49 65 rmoveto
            -30 -11 -37 -20 -21 -21 -34 -93 -136 -185 -39 -21 19 -10 rcurveline
            return
          </CharString>
          <CharString index="90">
            -4 callsubr
            -22 callgsubr
            rrcurveto
            return
          </CharString>
          <CharString index="91">
            46 72 -18 54 hhcurveto
            36 -18 10 59 77 hvcurveto
            -5 6 rlineto
            -18 -28 -16 -7 -18 hhcurveto
            return
          </CharString>
          <CharString index="92">
            -11 -30 hhcurveto
            -27 -29 11 callsubr
            return
          </CharString>
          <CharString index="93">
            -18 vlineto
            -132 -80 -126 -66 -123 -56 35 -30 rcurveline
            177 77 167 89 103 74 rrcurveto
            10 vlineto
            -122 80 -146 80 -163 60 rrcurveto
            endchar
          </CharString>
          <CharString index="94">
            rmoveto
            -239 -120 -165 -213 -138 114 -149 167 227 137 155 222 142 -105 146 -181 hvcurveto
            -27 -46 rmoveto
            return
          </CharString>
          <CharString index="95">
            -134 -1 callgsubr
            18 99 11 124 16 100 rrcurveto
            return
          </CharString>
          <CharString index="96">
            44 229 42 250 25 170 7 -41 callgsubr
            return
          </CharString>
          <CharString index="97">
            0 56 -36 -21 384 58 253 57 return
          </CharString>
          <CharString index="98">
            rmoveto
            32 -37 86 -79 66 -41 rrcurveto
            1 hlineto
            -69 -38 -82 -70 -30 -31 38 28 callgsubr
            73 -74 82 -34 50 rrcurveto
            return
          </CharString>
          <CharString index="99">
            -66 hhcurveto
            -54 -43 41 26 -28 hvcurveto
            -58 -39 rlineto
            -31 42 59 -51 66 hhcurveto
            return
          </CharString>
          <CharString index="100">
            20 callgsubr
            153 return
          </CharString>
          <CharString index="101">
            4 5 -20 hvcurveto
            return
          </CharString>
          <CharString index="102">
            34 callgsubr
            -14 -86 -8 -93 -38 -204 26 callsubr
            return
          </CharString>
          <CharString index="103">
            -58 callsubr
            71 30 111 -57 callgsubr
            -11 22 callgsubr
            -82 -98 -62 -44 -2 3 rcurveline
            return
          </CharString>
          <CharString index="104">
            -112 -99 -110 -171 -23 hvcurveto
            return
          </CharString>
          <CharString index="105">
            -1 -33 -59 0 -60 hhcurveto
            return
          </CharString>
          <CharString index="106">
            -87 callgsubr
            11 -13 rcurveline
            31 36 42 48 54 27 rrcurveto
            11 22 38 16 3 hhcurveto
            return
          </CharString>
          <CharString index="107">
            -127 -129 -54 callsubr
            return
          </CharString>
          <CharString index="108">
            47 32 57 8 147 1 -67 -49 -51 -87 -10 -71 -4 -29 -5 -33 -6 -33 -44 -3 -68 -4 -73 -6 rrcurveto
            endchar
          </CharString>
          <CharString index="109">
            278 757 rmoveto
            -160 -133 -167 -191 hvcurveto
            -35 callsubr
            202 109 45 62 return
          </CharString>
          <CharString index="110">
            79 94 95 vvcurveto
            83 -76 60 -152 vhcurveto
            return
          </CharString>
          <CharString index="111">
            -114 -62 -131 -74 -87 49 -46 52 return
          </CharString>
          <CharString index="112">
            -9 69 164 73 274 59 return
          </CharString>
          <CharString index="113">
            12 41 22 32 12 8 return
          </CharString>
          <CharString index="114">
            hlineto
            54 54 rlineto
            return
          </CharString>
          <CharString index="115">
            836 rmoveto
            -69 -65 27 -24 24 -32 15 -16 rlinecurve
            67 60 -14 21 -28 39 -22 17 rlinecurve
            endchar
          </CharString>
          <CharString index="116">
            98 98 98 96 77 -31 67 -90 hvcurveto
            return
          </CharString>
          <CharString index="117">
            239 -31 callgsubr
            return
          </CharString>
          <CharString index="118">
            -6 callsubr
            -47 -64 return
          </CharString>
          <CharString index="119">
            -1 3 rcurveline
            return
          </CharString>
          <CharString index="120">
            10 42 -25 -21 313 29 95 42 267 29 37 -20 hstemhm
            39 51 188 58 return
          </CharString>
          <CharString index="121">
            -65 vvcurveto
            -42 6 -30 14 -30 vhcurveto
            101 55 85 return
          </CharString>
          <CharString index="122">
            174 48 71 131 -2 vhcurveto
            return
          </CharString>
          <CharString index="123">
            11 -21 484 40 return
          </CharString>
          <CharString index="124">
            5 20 21 3 20 return
          </CharString>
          <CharString index="125">
            rmoveto
            26 -23 23 -30 14 -16 64 57 rcurveline
            -14 20 -26 37 -21 17 rrcurveto
            endchar
          </CharString>
          <CharString index="126">
            21 callsubr
            481 7 callsubr
            return
          </CharString>
          <CharString index="127">
            -154 -51 -51 rrcurveto
            -2 46 0 45 44 return
          </CharString>
          <CharString index="128">
            rmoveto
            -54 -54 rlineto
            return
          </CharString>
          <CharString index="129">
            24 150 rrcurveto
            return
          </CharString>
          <CharString index="130">
            40 callsubr
            -106 -137 -108 -15 hvcurveto
            -73 -533 rlineto
            -1 return
          </CharString>
          <CharString index="131">
            629 26 callgsubr
            return
          </CharString>
          <CharString index="132">
            68 373 68 vstem
            return
          </CharString>
          <CharString index="133">
            -12 -64 -23 -88 -80 -17 20 callgsubr
            return
          </CharString>
          <CharString index="134">
            48 -118 88 -267 -27 -15 rcurveline
            return
          </CharString>
          <CharString index="135">
            -9 8 rcurveline
            -72 -54 -54 -30 -50 -9 return
          </CharString>
          <CharString index="136">
            1 11 2 11 2 10 rrcurveto
            83 13 return
          </CharString>
          <CharString index="137">
            98 73 92 194 42 227 -5 11 -14 15 -19 5 rrcurveto
            return
          </CharString>
          <CharString index="138">
            851 rmoveto
            return
          </CharString>
          <CharString index="139">
            3 57 6 32 8 37 29 128 100 93 29 12 rrcurveto
            return
          </CharString>
          <CharString index="140">
            -162 -21 867 49 -15 39 return
          </CharString>
          <CharString index="141">
            57 -37 -21 703 52 return
          </CharString>
          <CharString index="142">
            -4 -25 -3 -25 -3 -25 return
          </CharString>
          <CharString index="143">
            vhcurveto
            58 202 108 163 66 45 callsubr
            return
          </CharString>
          <CharString index="144">
            2 15 -22 callsubr
            endchar
          </CharString>
          <CharString index="145">
            hlineto
            40 53 rlineto
            endchar
          </CharString>
          <CharString index="146">
            7 -18 2 -39 -40 vvcurveto
            -214 -30 -64 -91 return
          </CharString>
          <CharString index="147">
            31 callsubr
            -112 return
          </CharString>
          <CharString index="148">
            rmoveto
            481 7 callsubr
            -481 hlineto
            return
          </CharString>
          <CharString index="149">
            57 callgsubr
            -60 -170 -125 -205 return
          </CharString>
          <CharString index="150">
            101 -21 403 -20 hstem
            return
          </CharString>
          <CharString index="151">
            -127 -60 -58 return
          </CharString>
          <CharString index="152">
            65 4 -2 rcurveline
            return
          </CharString>
          <CharString index="153">
            -47 -64 rlineto
            return
          </CharString>
          <CharString index="154">
            37 rrcurveto
            endchar
          </CharString>
          <CharString index="155">
            -132 -11 -156 18 -137 -7 return
          </CharString>
          <CharString index="156">
            25 callgsubr
            endchar
          </CharString>
          <CharString index="157">
            hvcurveto
            -4 8 return
          </CharString>
          <CharString index="158">
            148 -56 102 -53 119 -71 return
          </CharString>
          <CharString index="159">
            -6 32 -11 9 vhcurveto
            return
          </CharString>
          <CharString index="160">
            11 44 callgsubr
            return
          </CharString>
          <CharString index="161">
            -21 899 -20 hstem
            return
          </CharString>
          <CharString index="162">
            -1 -21 -43 0 return
          </CharString>
          <CharString index="163">
            0 8 1 return
          </CharString>
        <CharString name=".notdef">
          -184 endchar
        </CharString>
        <CharString name=".null">
          -434 endchar
        </CharString>
        <CharString name="A">
          239 -101 callgsubr
          endchar
        </CharString>
        <CharString name="AE">
          434 -1 57 -43 -21 283 49 59 58 258 52 2 -20 hstemhm
          69 69 hintmask 10111010
          441 275 rmoveto
          -5 -31 -6 -32 -6 -35 -72 callsubr
          -9 rcurveline
          383 hlineto
          -2 callgsubr
          -4 8 rcurveline
          -26 -37 -41 -12 -45 hhcurveto
          -260 hlineto
          -4 9 -99 callsubr
          46 callgsubr
          -2 callsubr
          hintmask 10110110
          -127 -70 2 -48 hhcurveto
          -150 -72 -10 -75 callsubr
          hintmask 10111010
          -30 callsubr
          41 38 -3 27 hhcurveto
          -88 -134 -151 -300 -64 -101 rrcurveto
          -92 -58 -19 -22 -63 -26 callsubr
          hintmask 01111010
          46 callsubr
          62 hlineto
          96 74 43 109 68 hvcurveto
          25 40 20 41 26 50 rrcurveto
          251 419 rmoveto
          -33 -54 -10 -108 -34 -208 rrcurveto
          -141 hlineto
          43 84 102 215 73 71 rrcurveto
          endchar
        </CharString>
        <CharString name="Aacute">
          251 -101 callgsubr
          155 347 -102 callgsubr
        </CharString>
        <CharString name="Acircumflex">
          10 callsubr
          157 -82 callgsubr
          78 301 -103 callsubr
        </CharString>
        <CharString name="Adieresis">
          10 callsubr
          156 -82 callgsubr
          -98 250 -105 callsubr
        </CharString>
        <CharString name="Agrave">
          239 -101 callgsubr
          -111 311 -97 callsubr
        </CharString>
        <CharString name="Aring">
          10 callsubr
          49 142 6 callgsubr
          55 22 hintmask 10111111
          -106 callsubr
          hintmask 01111111
          -104 callgsubr
          70 335 -46 callsubr
          12 callgsubr
        </CharString>
        <CharString name="Atilde">
          246 -31 callgsubr
          72 51 -14 49 6 callgsubr
          hintmask 10111011
          -106 callsubr
          hintmask 01111011
          -104 callgsubr
          203 299 -19 callgsubr
          hintmask 10110111
          -78 callgsubr
          hintmask 10111011
          -60 callsubr
        </CharString>
        <CharString name="B">
          237 0 57 339 43 263 52 hstemhm
          -9 65 489 78 -56 70 hintmask 11110100
          420 -44 callgsubr
          205 114 90 136 3 vhcurveto
          -1 -1 -46 -61 -5 -146 -59 -317 rlinecurve
          -84 callsubr
          218 hlineto
          163 172 160 138 63 -40 53 -99 17 hvcurveto
          hintmask 11111000
          73 49 52 89 58 vvcurveto
          71 -59 56 -144 vhcurveto
          -51 -358 rmoveto
          22 hlineto
          hintmask 11110100
          119 -3 57 -73 -77 vvcurveto
          -93 -78 -93 -144 vhcurveto
          -148 hlineto
          18 callgsubr
          17 34 7 39 rlinecurve
          32 -49 callsubr
          3 16 4 15 6 12 41 2 rcurveline
          hintmask 11111000
          104 40 -64 -65 -68 -42 -69 -57 -12 -13 2 5 -12 hvcurveto
          -11 -13 rlineto
          endchar
        </CharString>
        <CharString name="C">
          88 13 -21 716 43 hstem
          36 68 vstem
          412 40 callgsubr
          -112 58 -122 145 hvcurveto
          70 19 89 74 44 55 -24 callsubr
        </CharString>
        <CharString name="CR">
          -434 endchar
        </CharString>
        <CharString name="Ccedilla">
          93 -224 40 892 43 hstem
          35 68 134 45 vstem
          411 40 callgsubr
          -104 50 -112 123 -16 hvcurveto
          -81 -68 -45 callgsubr
          11 10 19 16 20 18 70 20 86 72 43 54 -24 callsubr
        </CharString>
        <CharString name="D">
          298 0 57 648 49 hstem
          11 65 548 68 vstem
          419 754 rmoveto
          -290 -118 -183 -223 hvcurveto
          65 56 rlineto
          209 131 89 102 vhcurveto
          -46 -61 -5 -147 -72 callgsubr
          180 hlineto
          249 175 284 210 138 -73 122 -200 hvcurveto
          -218 -697 rmoveto
          -63 callgsubr
          14 6 13 rrcurveto
          195 63 -123 -146 -173 -115 -206 -170 hvcurveto
          endchar
        </CharString>
        <CharString name="Delta">
          209 0 -21 775 -20 hstem
          439 55 vstem
          431 726 rmoveto
          -43 -62 -311 -579 -57 -105 465 -1 rcurveline
          93 65 -29 177 -54 386 -1 147 rlinecurve
          -55 -80 rmoveto
          14 -223 19 -240 31 -175 rrcurveto
          1 -3 -418 -6 0 vvcurveto
          35 73 318 575 -1 vvcurveto
          endchar
        </CharString>
        <CharString name="E">
          191 -10 callsubr
          51 callgsubr
          -8 69 hintmask 10110100
          322 -88 callsubr
          hintmask 01110100
          -101 callsubr
          hintmask 10101100
          46 callgsubr
          hintmask 10110100
          -2 callsubr
          endchar
        </CharString>
        <CharString name="Eacute">
          -82 callsubr
          60 209 -102 callgsubr
        </CharString>
        <CharString name="Ecircumflex">
          190 -10 callsubr
          155 -20 hstemhm
          -9 69 hintmask 10111100
          321 -88 callsubr
          hintmask 01111100
          -98 callsubr
          -69 155 -103 callsubr
        </CharString>
        <CharString name="Edieresis">
          190 -10 callsubr
          163 -20 hstemhm
          -9 69 hintmask 10111100
          321 -88 callsubr
          hintmask 01111100
          -98 callsubr
          -290 113 -105 callsubr
        </CharString>
        <CharString name="Egrave">
          -82 callsubr
          -244 175 -97 callsubr
        </CharString>
        <CharString name="Eth">
          286 0 57 299 62 287 49 hstem
          11 65 535 68 vstem
          128 357 rmoveto
          26 37 0 -1 38 hvcurveto
          -9 -59 -7 -41 -14 -79 -84 callsubr
          170 hlineto
          243 178 284 219 138 -69 113 -187 -267 -145 -130 -236 hvcurveto
          65 56 rlineto
          181 131 77 102 vhcurveto
          -31 -41 -12 -77 -27 -166 rrcurveto
          1 -24 -21 0 -17 hhcurveto
          -17 hlineto
          41 -362 rmoveto
          -34 callgsubr
          11 65 12 66 5 39 rrcurveto
          -1 45 37 0 13 -67 callgsubr
          hhcurveto
          -18 -36 0 1 -40 hvcurveto
          13 80 16 101 11 63 3 18 6 14 6 13 rrcurveto
          175 70 -123 -139 -180 -118 -206 -164 hvcurveto
          endchar
        </CharString>
        <CharString name="Euro">
          197 13 -21 235 52 81 52 296 43 hstem
          510 13 callgsubr
          -171 -124 -162 -177 -53 hvcurveto
          -74 hlineto
          -34 -51 rlineto
          19 40 -1 36 hhcurveto
          -6 -27 -4 -28 -3 -26 rrcurveto
          -59 hlineto
          -34 -51 rlineto
          18 38 0 -1 35 hvcurveto
          -1 vlineto
          -112 58 -122 145 vhcurveto
          70 19 89 74 44 55 28 callsubr
          -81 19 -47 73 -17 80 55 1 64 4 50 11 26 36 rcurveline
          -202 hlineto
          -1 8 0 8 8 vvcurveto
          19 1 19 3 19 vhcurveto
          58 1 71 3 55 12 26 36 rcurveline
          -201 hlineto
          36 156 109 138 115 2 -4 callgsubr
        </CharString>
        <CharString name="F">
          172 -9 56 336 58 253 57 51 callgsubr
          -1 69 hintmask 11101000
          329 -79 callgsubr
          -11 -204 -57 -296 rrcurveto
          -71 -14 -24 -39 callgsubr
          83 73 27 157 rlinecurve
          8 47 11 53 -77 callgsubr
          hhcurveto
          -43 -36 5 -1 -53 hvcurveto
          -65 callsubr
          hintmask 11011000
          46 callgsubr
          hintmask 11101000
          -2 callsubr
          endchar
        </CharString>
        <CharString name="G">
          167 -201 50 -30 -21 913 49 hstemhm
          35 68 hintmask 01110000
          226 -202 rmoveto
          230 2 21 14 23 16 23 16 rlinecurve
          -4 8 rlineto
          hintmask 10110000
          -4 -31 -28 -1 -29 hhcurveto
          -30 -31 2 4 -31 50 callsubr
          94 103 11 71 51 303 rlinecurve
          8 48 24 30 16 9 -1 4 rcurveline
          -52 -100 -1 -2 -20 hvcurveto
          -83 -62 11 -8 rlineto
          16 34 61 1 53 hhcurveto
          -11 -31 -18 -124 -16 -81 -49 -54 -52 -25 -39 -7 rrcurveto
          -106 25 -48 87 109 vvcurveto
          197 124 240 175 45 59 -13 -15 37 vhcurveto
          51 62 rlineto
          7 -31 -74 8 -62 hhcurveto
          -94 -103 -72 -100 -75 hvcurveto
          -73 -97 -47 -123 -108 vvcurveto
          -139 44 -131 159 vhcurveto
          46 13 58 27 51 77 -41 -185 -52 -67 -78 -49 rrcurveto
          endchar
        </CharString>
        <CharString name="H">
          367 -9 56 -27 -21 393 49 254 55 51 callgsubr
          -9 69 hintmask 10110100
          320 750 rmoveto
          hintmask 10101100
          -87 -35 -4 -70 callgsubr
          hintmask 10110100
          15 callsubr
          75 -1 -35 -56 -11 -192 -56 callgsubr
          14 79 2 16 12 79 303 -2 rcurveline
          -11 -66 -8 -52 -18 -96 -84 callsubr
          hintmask 01101100
          -48 callsubr
          -21 -31 -48 16 callgsubr
          -34 callgsubr
          28 167 29 180 9 callgsubr
          -1 3 rcurveline
          -27 callgsubr
          -24 -39 -9 -60 -24 -154 -302 1 rcurveline
          10 79 12 89 17 56 6 callsubr
          rrcurveto
          hintmask 10110100
          -1 3 rlineto
          endchar
        </CharString>
        <CharString name="I">
          7 3 callgsubr
          hstemhm
          -5 69 hintmask 10110000
          321 -92 callgsubr
          hintmask 01110000
          -42 callgsubr
          hintmask 10110000
          -81 callgsubr
          -90 hlineto
          endchar
        </CharString>
        <CharString name="IJ">
          376 -202 54 148 56 -36 -21 695 57 hstemhm
          -5 69 345 69 hintmask 11011100
          694 13 callgsubr
          -70 -41 -4 -16 -33 hvcurveto
          -105 -52 -36 -61 47 callgsubr
          69 54 rlineto
          101 35 31 106 -44 callsubr
          -463 hmoveto
          -95 callgsubr
          hintmask 10111100
          53 61 -1 45 hhcurveto
          29 2 65 66 23 19 -4 8 rcurveline
          hintmask 11011100
          -30 -33 -37 -8 -49 hhcurveto
          -13 -13 0 1 -14 hvcurveto
          18 callgsubr
          19 32 7 41 rlinecurve
          29 169 28 178 9 callgsubr
          -1 3 rcurveline
          endchar
        </CharString>
        <CharString name="Iacute">
          25 3 callgsubr
          hstemhm
          -5 69 hintmask 10110000
          321 -92 callgsubr
          hintmask 01110000
          -42 callgsubr
          hintmask 10110000
          -81 callgsubr
          105 208 -102 callgsubr
        </CharString>
        <CharString name="Icircumflex">
          5 3 callgsubr
          164 -20 hstemhm
          -5 69 hintmask 10111000
          321 -92 callgsubr
          hintmask 01111000
          -42 callgsubr
          hintmask 10111000
          -81 callgsubr
          -31 164 -103 callsubr
        </CharString>
        <CharString name="Idieresis">
          6 3 callgsubr
          160 -20 hstemhm
          -5 69 hintmask 10111000
          321 -92 callgsubr
          hintmask 01111000
          -42 callgsubr
          hintmask 10111000
          -81 callgsubr
          -204 110 -105 callsubr
        </CharString>
        <CharString name="Igrave">
          6 3 callgsubr
          hstemhm
          -5 69 hintmask 10110000
          321 -92 callgsubr
          hintmask 01110000
          -42 callgsubr
          hintmask 10110000
          -81 callgsubr
          -203 169 -97 callsubr
        </CharString>
        <CharString name="Itilde">
          34 3 callgsubr
          78 36 callgsubr
          3 69 hintmask 10110100
          329 -92 callgsubr
          hintmask 01110100
          -42 callgsubr
          hintmask 10110100
          -81 callgsubr
          92 -28 callgsubr
        </CharString>
        <CharString name="J">
          69 -202 54 842 57 hstem
          71 69 vstem
          396 13 callgsubr
          -70 -81 callsubr
          69 hlineto
          -11 -13 -7 -21 -3 -17 -25 -153 -36 -196 -38 -268 rrcurveto
          -120 -17 -58 -54 -8 callsubr
          115 28 84 102 16 83 -11 callsubr
          endchar
        </CharString>
        <CharString name="Jcircumflex">
          100 -202 54 842 57 161 -20 hstem
          53 69 vstem
          378 13 callgsubr
          -70 -46 -4 -16 -28 hvcurveto
          -138 -79 -43 -111 -143 vvcurveto
          69 54 rlineto
          177 47 65 134 -44 callsubr
          -42 161 -103 callsubr
        </CharString>
        <CharString name="K">
          290 -92 -21 105 55 638 65 2 -20 hstemhm
          -6 69 297 69 hintmask 11101100
          323 -69 callsubr
          -27 callsubr
          -11 -192 -61 -317 rrcurveto
          -71 -14 -21 -15 callsubr
          rlineto
          61 hlineto
          108 78 73 154 28 hvcurveto
          16 89 27 254 32 104 6 callsubr
          12 callsubr
          -57 -411 rmoveto
          93 -154 109 -159 128 -139 35 35 rcurveline
          -94 126 -121 202 -81 169 rrcurveto
          81 43 185 125 22 24 -6 -13 25 vhcurveto
          75 50 rlineto
          hintmask 11011100
          25 -19 -27 11 -29 hhcurveto
          -52 -256 -84 -329 hvcurveto
          endchar
        </CharString>
        <CharString name="L">
          -15 -195 47 156 49 656 39 hstem
          581 -103 rmoveto
          -33 -32 -38 -12 -26 -135 -138 205 -145 -19 callsubr
          -5 callsubr
          146 -203 139 hhcurveto
          64 63 33 51 27 hvcurveto
          endchar
        </CharString>
        <CharString name="Ldotaccent">
          88 41 callgsubr
          369 752 rmoveto
          -5 callsubr
          152 -203 133 -37 callsubr
          -161 -104 195 -171 -19 callsubr
          -69 -443 rmoveto
          23 -21 27 -23 11 -16 66 67 rcurveline
          -11 18 -27 35 -21 14 rrcurveto
          endchar
        </CharString>
        <CharString name="Lslash">
          14 41 callgsubr
          360 752 rmoveto
          34 callgsubr
          -7 -41 -5 -43 -8 -55 -33 -21 -37 -24 -14 -10 -23 -67 rcurveline
          19 14 42 28 38 25 -8 -51 -10 -61 -14 -77 26 callsubr
          153 -203 132 -37 callsubr
          -161 -109 195 -166 hhcurveto
          -4 8 49 47 19 35 8 39 rlinecurve
          8 42 12 86 16 102 39 23 40 21 41 19 25 60 rcurveline
          -45 -19 -46 -24 -46 -26 20 119 rcurveline
          -17 callgsubr
          endchar
        </CharString>
        <CharString name="M">
          558 -7 55 -46 -21 719 56 3 -20 hstemhm
          37 69 379 66 234 72 hintmask 10101110
          369 756 -90 callgsubr
          37 36 -3 32 hhcurveto
          -7 -6 -4 -9 -3 -8 -191 -513 rcurveline
          -61 -23 -20 -52 -95 -38 callgsubr
          61 hlineto
          125 91 82 98 38 hvcurveto
          179 467 rlineto
          -3 0 -4 -5 -94 20 -318 -182 -19 -1 -18 -15 vvcurveto
          hintmask 01011110
          4 -1 148 331 79 209 106 90 rlinecurve
          -23 -109 -13 -146 -134 vvcurveto
          -89 6 -85 13 -64 vhcurveto
          50 23 55 34 -58 callgsubr
          -26 hhcurveto
          -8 52 -4 60 69 vvcurveto
          137 14 170 23 205 vhcurveto
          -106 -24 -166 -313 -71 -240 rrcurveto
          38 0 37 37 vvcurveto
          155 -4 149 -14 148 vhcurveto
          hintmask 10101110
          4 -53 -56 6 -55 hhcurveto
          endchar
        </CharString>
        <CharString name="N">
          375 38 callgsubr
          51 callgsubr
          -29 69 hintmask 10101000
          300 750 rmoveto
          hintmask 10011000
          -87 -35 -4 -70 callgsubr
          hintmask 10101000
          15 callsubr
          72 -1 -33 -50 -8 -189 -46 callgsubr
          142 83 -257 27 callsubr
          hintmask 01011000
          -54 callgsubr
          -30 -293 -36 -204 rrcurveto
          hintmask 10101000
          -45 191 -75 247 -73 199 rrcurveto
          endchar
        </CharString>
        <CharString name="Nacute">
          350 38 callgsubr
          hstemhm
          -77 69 hintmask 10110000
          252 -59 callsubr
          hintmask 01110000
          -40 callsubr
          288 197 -102 callgsubr
        </CharString>
        <CharString name="Ntilde">
          379 38 callgsubr
          78 36 callgsubr
          -29 69 hintmask 10110100
          300 -59 callsubr
          hintmask 01110100
          -40 callsubr
          294 -28 callgsubr
        </CharString>
        <CharString name="O">
          148 16 -21 758 -20 hstem
          35 25 callsubr
          394 -103 callgsubr
          endchar
        </CharString>
        <CharString name="OE">
          363 -1 55 329 58 253 57 51 callgsubr
          33 68 hintmask 11101000
          458 13 callgsubr
          -254 -171 -280 -234 -115 57 -123 183 hvcurveto
          342 hlineto
          -2 callgsubr
          -4 8 rcurveline
          -31 -43 -51 -9 -52 hhcurveto
          -226 hlineto
          -5 11 50 48 18 34 7 callgsubr
          10 68 -77 callgsubr
          hhcurveto
          -43 -36 5 -1 -53 hvcurveto
          -65 callsubr
          hintmask 11011000
          46 callgsubr
          hintmask 11101000
          -2 callsubr
          -197 -56 rmoveto
          -40 -65 -4 -146 56 callgsubr
          -7 -39 -12 -49 -49 -34 rrcurveto
          -132 -52 133 109 -21 callgsubr
          hvcurveto
          42 2 39 0 33 -4 rrcurveto
          endchar
        </CharString>
        <CharString name="Oacute">
          175 16 -21 -96 callsubr
          261 909 -102 callgsubr
        </CharString>
        <CharString name="Ocircumflex">
          153 16 -21 923 -20 -96 callsubr
          177 867 -103 callsubr
        </CharString>
        <CharString name="Odieresis">
          123 16 -21 922 -20 -96 callsubr
          12 816 -105 callsubr
        </CharString>
        <CharString name="Ograve">
          153 16 -21 -96 callsubr
          46 873 -97 callsubr
        </CharString>
        <CharString name="Omega">
          380 0 55 674 30 hstem
          137 94 489 84 vstem
          524 759 rmoveto
          -209 -178 -192 -238 -138 71 -75 82 -61 hvcurveto
          -156 hlineto
          -45 -55 rlineto
          229 hlineto
          11 19 rlineto
          -53 102 -45 120 111 vvcurveto
          193 105 184 183 134 67 -80 -148 -194 -106 -150 -111 -138 vhcurveto
          5 -19 rlineto
          193 hlineto
          38 55 rlineto
          -187 hlineto
          126 77 126 130 194 vvcurveto
          167 -111 136 -169 vhcurveto
          endchar
        </CharString>
        <CharString name="Oslash">
          153 -62 -21 900 -20 hstem
          38 25 callsubr
          506 817 rmoveto
          -17 -32 -16 -31 -16 -31 -17 13 -21 10 -22 7 rrcurveto
          -32 callgsubr
          -67 16 -61 36 -45 vhcurveto
          -18 -31 -18 -29 -16 -28 43 -59 rcurveline
          17 34 18 36 20 36 19 -12 21 -10 25 -6 rrcurveto
          -32 callsubr
          80 -18 73 -41 50 vhcurveto
          17 33 17 32 16 31 rrcurveto
          -285 -737 rmoveto
          -31 11 -26 17 -20 21 84 160 95 180 86 163 rrcurveto
          26 -49 12 -61 -64 -31 callsubr
          -147 246 rmoveto
          -23 callgsubr
          28 -13 23 -18 19 -22 -96 -178 -95 -170 -84 -147 rrcurveto
          -23 43 -11 51 54 vvcurveto
          endchar
        </CharString>
        <CharString name="Otilde">
          145 16 -21 842 36 callgsubr
          29 68 373 68 hintmask 11011000
          388 -103 callgsubr
          328 869 -24 callgsubr
        </CharString>
        <CharString name="P">
          219 0 57 -37 -21 356 44 303 52 hstemhm
          -9 45 callgsubr
          hintmask 10111100
          420 -80 callsubr
          hintmask 01111100
          -48 callsubr
          hintmask 10111100
          -80 callgsubr
          -74 -36 -79 -81 -12 -13 2 5 -12 hvcurveto
          -40 -50 rlineto
          -1 7 7 0 8 hhcurveto
          147 100 163 93 83 -76 60 -152 hvcurveto
          endchar
        </CharString>
        <CharString name="Q">
          215 -104 57 76 35 633 56 hstem
          69 68 389 67 vstem
          231 278 rmoveto
          -46 19 -48 44 87 vvcurveto
          180 89 89 167 vhcurveto
          96 -42 37 -108 -94 vvcurveto
          -159 -185 -230 -180 -25 -25 5 10 -25 vhcurveto
          -81 -50 4 -8 rlineto
          17 callsubr
          172 83 -133 116 hhcurveto
          74 80 51 29 38 hvcurveto
          -10 11 rlineto
          -19 -39 -34 -15 -42 hhcurveto
          -89 -87 60 34 -81 hvcurveto
          173 84 169 192 182 vvcurveto
          109 -42 108 -106 31 vhcurveto
          -223 -153 -170 -197 -83 41 -59 60 -21 hvcurveto
          endchar
        </CharString>
        <CharString name="R">
          287 42 callgsubr
          hstemhm
          -6 45 callgsubr
          hintmask 11011100
          423 -94 callsubr
          30 34 -101 126 -117 204 -72 140 rlinecurve
          134 31 3 callsubr
          endchar
        </CharString>
        <CharString name="Racute">
          133 42 callgsubr
          hstemhm
          -105 45 callgsubr
          hintmask 11011100
          324 -94 callsubr
          35 35 -94 126 -122 203 -69 143 rlinecurve
          124 28 3 callsubr
          187 200 -102 callgsubr
        </CharString>
        <CharString name="Rcaron">
          133 42 callgsubr
          206 -20 hstemhm
          -105 45 callgsubr
          hintmask 11011110
          324 -80 callsubr
          hintmask 10111110
          -48 callsubr
          hintmask 11011110
          -88 callgsubr
          35 35 -94 126 -122 203 -69 143 rlinecurve
          124 28 3 callsubr
          -103 176 -77 callsubr
          endchar
        </CharString>
        <CharString name="Rcommaaccent">
          165 -263 -21 284 34 callsubr
          hstemhm
          -105 45 callgsubr
          hintmask 11011100
          324 -94 callsubr
          35 35 -94 126 -122 203 -69 143 rlinecurve
          124 28 3 callsubr
          -59 -793 -68 callgsubr
        </CharString>
        <CharString name="S">
          59 -8 57 649 62 hstem
          110 55 147 61 vstem
          339 760 -50 callsubr
        </CharString>
        <CharString name="Scaron">
          49 -8 57 649 62 206 -20 hstem
          105 55 147 61 vstem
          180 936 -77 callsubr
          109 -197 -50 callsubr
        </CharString>
        <CharString name="T">
          140 0 54 -34 -21 695 57 51 callgsubr
          -6 69 hintmask 10101000
          394 13 callgsubr
          -48 -39 0 -1 -36 hvcurveto
          -50 -2 -26 -5 -20 -12 rrcurveto
          -95 callsubr
          177 47 65 134 vhcurveto
          111 hlineto
          -40 -65 -5 -145 56 callgsubr
          -84 callsubr
          hintmask 01101000
          200 -20 callsubr
          rlineto
          hintmask 10101000
          -31 -43 -51 -9 -52 hhcurveto
          -54 3 18 callgsubr
          17 34 9 39 rlinecurve
          12 65 11 68 55 341 2 12 4 12 4 10 rrcurveto
          66 104 -1 42 hhcurveto
          hintmask 10011000
          46 callgsubr
          hintmask 10101000
          -1 -29 -51 0 -52 hhcurveto
          -157 hlineto
          endchar
        </CharString>
        <CharString name="Thorn">
          192 -257 53 205 53 459 49 203 48 hstemhm
          283 204 38 34 -34 54 hintmask 11111100
          52 585 rmoveto
          -56 60 75 -16 60 hhcurveto
          12 12 0 2 13 hvcurveto
          -4 -21 -3 -20 -3 -24 -27 -182 -17 -160 -25 -158 rrcurveto
          -137 -22 -49 -17 -60 callgsubr
          117 80 87 171 41 hvcurveto
          2 9 2 10 3 9 rrcurveto
          -20 21 22 -8 21 hhcurveto
          128 87 223 33 callgsubr
          -74 -23 -83 -85 -55 -95 -3 1 rcurveline
          8 44 13 87 12 80 rrcurveto
          hintmask 11111010
          114 30 119 78 111 vvcurveto
          49 -31 18 -43 -90 -93 -82 -117 -21 vhcurveto
          -4 -20 -3 -17 -2 -15 -61 3 -66 25 -55 56 rrcurveto
          173 -576 rmoveto
          3 57 14 84 9 37 20 84 120 98 29 -1 rrcurveto
          9 -18 0 -39 -40 vvcurveto
          -191 -34 -87 -107 55 callgsubr
          vhcurveto
          82 589 rmoveto
          78 12 32 28 46 hhcurveto
          46 24 -36 -43 -71 -99 -38 -75 -11 hvcurveto
          5 37 5 33 4 23 rrcurveto
          endchar
        </CharString>
        <CharString name="U">
          11 callgsubr
          51 callgsubr
          5 callsubr
          hintmask 11011100
          320 750 rmoveto
          hintmask 10111100
          -87 -35 -4 -70 callgsubr
          hintmask 11011100
          -102 callsubr
          rrcurveto
          hintmask 10111100
          -1 3 -35 -7 -50 -10 -16 -40 rlinecurve
          -64 -323 rlineto
          -62 callgsubr
          rrcurveto
          hintmask 11011100
          -1 3 rlineto
          endchar
        </CharString>
        <CharString name="Uacute">
          -87 callsubr
          281 211 -102 callgsubr
        </CharString>
        <CharString name="Ucircumflex">
          11 callgsubr
          176 -20 -106 callgsubr
          172 176 -103 callsubr
        </CharString>
        <CharString name="Udieresis">
          11 callgsubr
          171 -20 -106 callgsubr
          -11 121 -105 callsubr
        </CharString>
        <CharString name="Ugrave">
          -87 callsubr
          -10 169 -97 callsubr
        </CharString>
        <CharString name="V">
          256 12 -21 693 49 -33 57 hstemhm
          -15 69 304 67 253 75 hintmask 10111100
          2 callsubr
          105 28 -277 -217 -90 -5 -80 -6 -45 vhcurveto
          67 37 37 79 45 84 43 78 rlinecurve
          34 63 180 315 46 vvcurveto
          hintmask 11011100
          34 -32 6 -25 vhcurveto
          -39 hlineto
          -73 -45 1 -4 rlineto
          57 hlineto
          27 9 -7 -16 -44 -169 -304 -38 -75 hvcurveto
          -14 -28 -18 -30 -14 -46 rrcurveto
          hintmask 10111100
          350 -9 273 -138 vhcurveto
          endchar
        </CharString>
        <CharString name="W">
          544 11 -21 710 57 hstemhm
          -15 69 292 75 210 63 0 230 hintmask 11111000
          2 callsubr
          98 23 -200 -182 -115 -9 -108 -6 -47 vhcurveto
          -7 -57 69 37 99 185 25 45 114 279 rlinecurve
          -55 vlineto
          -205 16 -100 37 -187 vhcurveto
          36 35 57 113 189 314 50 249 rlinecurve
          4 vlineto
          21 -29 7 -28 vhcurveto
          -39 hlineto
          -76 -45 1 -4 rlineto
          47 hlineto
          hintmask 11110100
          24 8 -18 -29 -120 -148 -306 -56 -75 hvcurveto
          -12 121 -14 125 110 vvcurveto
          109 21 84 52 61 vhcurveto
          -6 7 -117 -72 -89 -208 -65 -182 -78 -138 rlinecurve
          4 47 5 77 84 vvcurveto
          182 -25 214 -118 vhcurveto
          endchar
        </CharString>
        <CharString name="X">
          314 -8 64 -35 -21 718 39 hstemhm
          67 69 hintmask 10110000
          732 757 rmoveto
          -112 -61 -109 -132 -75 hvcurveto
          -8 -13 -7 -14 -8 -14 -5 23 rcurveline
          112 -24 -32 147 -79 hhcurveto
          -180 -74 4 callgsubr
          46 64 95 vhcurveto
          67 -45 35 -168 20 -92 6 -26 rcurveline
          -33 -52 -54 -89 -48 -67 rrcurveto
          -100 -72 -29 -23 -71 -26 callsubr
          hintmask 01110000
          -47 -65 rlineto
          61 hlineto
          25 25 5 8 24 hvcurveto
          66 21 58 42 62 72 40 46 37 49 45 66 rrcurveto
          hintmask 10110000
          -91 25 63 -226 89 hhcurveto
          70 19 69 61 37 44 -9 8 rcurveline
          -43 -52 -46 -27 -39 hhcurveto
          -51 -71 207 118 -24 hvcurveto
          -6 28 45 83 44 85 48 80 rlinecurve
          30 18 25 29 31 hhcurveto
          22 37 -21 -17 24 hvcurveto
          49 61 rlineto
          14 -26 -40 6 -23 hhcurveto
          endchar
        </CharString>
        <CharString name="Y">
          240 33 callsubr
          hstemhm
          16 69 570 76 hintmask 10111000
          230 757 -67 callsubr
        </CharString>
        <CharString name="Yacute">
          244 33 callsubr
          hstemhm
          12 69 570 76 hintmask 10111000
          646 961 -104 callsubr
          -405 -165 -67 callsubr
        </CharString>
        <CharString name="Ydieresis">
          173 33 callsubr
          155 -20 hstemhm
          -54 69 570 76 hintmask 10111100
          257 862 -105 callgsubr
          -340 -155 -76 callsubr
          hintmask 11011100
          -25 callgsubr
          hintmask 10111100
          24 callgsubr
        </CharString>
        <CharString name="Z">
          103 14 callgsubr
          hstemhm
          51 69 hintmask 11011000
          278 -34 callsubr
          hintmask 11101000
          -86 callsubr
          hintmask 11011000
          -79 -47 41 -95 hhcurveto
          endchar
        </CharString>
        <CharString name="Zcaron">
          81 14 callgsubr
          199 -20 hstemhm
          29 69 hintmask 11011100
          256 -71 callgsubr
          36 169 -77 callsubr
          endchar
        </CharString>
        <CharString name="Zdotaccent">
          103 14 callgsubr
          202 -20 hstemhm
          51 69 hintmask 11011100
          278 -71 callgsubr
          99 140 18 callsubr
        </CharString>
        <CharString name="a">
          10 callgsubr
          hstem
          3 62 vstem
          -107 callsubr
          endchar
        </CharString>
        <CharString name="aacute">
          10 callgsubr
          hstem
          3 62 vstem
          -107 callsubr
          355 476 -102 callgsubr
        </CharString>
        <CharString name="acircumflex">
          10 callgsubr
          265 -20 hstem
          3 62 vstem
          -107 callsubr
          196 483 -103 callsubr
        </CharString>
        <CharString name="acute">
          598 -21 hstem
          257 758 -102 callgsubr
        </CharString>
        <CharString name="adieresis">
          10 callgsubr
          259 -20 hstem
          3 62 vstem
          -107 callsubr
          64 427 -105 callsubr
        </CharString>
        <CharString name="ae">
          93 10 callgsubr
          -35 35 -35 49 hstemhm
          3 62 171 67 -24 246 -58 58 hintmask 11001101
          254 500 rmoveto
          -58 -44 -16 -29 -34 hvcurveto
          -43 -36 -27 -57 -20 -70 rrcurveto
          -15 -54 -10 -75 -67 vvcurveto
          -42 4 -38 -53 callgsubr
          -13 -33 -5 -41 -34 vvcurveto
          -77 28 -95 72 -17 vhcurveto
          -92 callsubr
          -83 -100 -72 -55 rrcurveto
          -53 44 -16 51 67 vvcurveto
          9 56 callsubr
          11 vhcurveto
          hintmask 10011010
          -42 callsubr
          -40 -53 -37 -55 -46 vhcurveto
          2 12 6 20 2 12 6 29 rcurveline
          hintmask 11001010
          5 -25 -29 0 -43 hhcurveto
          -37 -51 rmoveto
          -91 callsubr
          11 90 11 44 38 20 rrcurveto
          10 19 26 3 36 hhcurveto
          hintmask 10101101
          223 16 rmoveto
          22 5 -9 -26 callgsubr
          97 72 hhcurveto
          endchar
        </CharString>
        <CharString name="agrave">
          -26 10 callgsubr
          hstem
          1 62 vstem
          252 -107 callgsubr
          45 437 -97 callsubr
        </CharString>
        <CharString name="ampersand">
          264 11 -21 23 -21 458 60 183 58 hstemhm
          38 71 259 67 hintmask 01111100
          516 52 rmoveto
          -57 11 -24 51 79 vvcurveto
          85 31 104 13 69 vhcurveto
          51 60 0 -2 26 hvcurveto
          61 58 rlineto
          1 -43 -45 2 -46 hhcurveto
          -81 -86 -4 -9 -100 hvcurveto
          87 53 82 66 57 vvcurveto
          53 -36 25 -44 -128 -199 -231 -253 -137 42 -138 150 vhcurveto
          43 15 57 54 41 49 rrcurveto
          hintmask 10111100
          -92 15 55 -28 24 hhcurveto
          79 32 128 151 94 132 -9 6 rcurveline
          -73 -98 -99 -113 -69 -48 rrcurveto
          -263 3 rmoveto
          -87 15 -57 60 169 vvcurveto
          39 5 39 9 38 vhcurveto
          4 2 4 2 5 2 rrcurveto
          21 96 98 8 92 hhcurveto
          -26 -65 -28 -109 -119 vvcurveto
          -22 vlineto
          -44 -43 -41 -30 -30 -7 rrcurveto
          64 638 rmoveto
          35 18 -21 -31 hvcurveto
          -2 -45 -68 -55 -91 -51 rrcurveto
          -1 hlineto
          -1 -1 -23 -13 -25 -13 -26 -12 rlinecurve
          132 41 84 110 59 hhcurveto
          endchar
        </CharString>
        <CharString name="approxequal">
          316 140 51 7 54 102 51 7 54 hstem
          274 466 rmoveto
          -51 callgsubr
          -214 vmoveto
          -51 callgsubr
          endchar
        </CharString>
        <CharString name="aring">
          10 callgsubr
          132 142 hstemhm
          3 62 150 140 -22 22 hintmask 11111000
          -107 callsubr
          202 492 -46 callsubr
          hintmask 11110100
          12 callgsubr
        </CharString>
        <CharString name="asciicircum">
          238 313 -21 405 -20 hstem
          347 697 rmoveto
          -103 -125 -102 -132 -88 -122 12 -14 rcurveline
          78 88 104 121 72 101 76 -108 70 -96 80 -118 45 44 rcurveline
          -69 122 -96 128 -79 111 rrcurveto
          endchar
        </CharString>
        <CharString name="asciitilde">
          316 234 51 7 54 hstem
          274 346 rmoveto
          -51 callgsubr
          endchar
        </CharString>
        <CharString name="asterisk">
          45 460 -21 330 -20 hstem
          316 769 rmoveto
          -60 -25 -10 -99 -11 -6 -71 82 -60 -29 34 -28 36 -26 36 -28 rlinecurve
          -5 -18 -118 -63 11 -18 118 55 6 -7 -41 -120 56 16 20 102 10 4 63 -69 50 35 -92 65 4 14 115 40 -4 71 -48 -30 -22 -18 -47 -32 rlinecurve
          -7 7 rlineto
          endchar
        </CharString>
        <CharString name="at">
          458 -75 32 707 34 hstem
          75 65 144 59 413 54 vstem
          408 448 rmoveto
          8 34 44 1 35 hhcurveto
          -14 -96 -78 -130 -86 -2 rrcurveto
          66 15 110 50 43 vhcurveto
          122 250 rmoveto
          -285 -170 -237 -212 -160 108 -164 261 117 101 49 100 91 hvcurveto
          -9 12 rlineto
          -79 -86 -85 -50 -105 hhcurveto
          -232 -96 134 200 183 124 190 215 188 89 -101 -165 -103 -70 -99 -168 -25 hvcurveto
          28 113 37 105 19 89 rrcurveto
          11 -8 5 -12 -49 -65 0 -14 -43 vhcurveto
          -92 -36 -49 -120 -85 vvcurveto
          -5 vlineto
          -50 2 -31 10 -21 vhcurveto
          93 38 68 87 50 76 rrcurveto
          -69 -20 -66 -7 -66 vhcurveto
          -3 17 16 -1 16 hhcurveto
          173 108 161 151 133 -84 125 -196 hvcurveto
          endchar
        </CharString>
        <CharString name="atilde">
          -22 10 callgsubr
          154 36 callgsubr
          3 62 hintmask 11101000
          -107 callsubr
          374 455 -19 callgsubr
          hintmask 11011000
          -78 callgsubr
          hintmask 11101000
          -60 callsubr
        </CharString>
        <CharString name="b">
          -50 -9 51 756 53 hstem
          287 60 vstem
          272 420 rmoveto
          10 -25 5 -32 -32 vvcurveto
          -154 -67 -135 -103 -27 -22 5 10 vhcurveto
          15 151 127 149 62 63 rrcurveto
          51 431 rmoveto
          -112 -106 -129 -116 -15 hvcurveto
          -45 -338 -12 -75 -16 -142 rrcurveto
          -16 5 -33 6 -11 vhcurveto
          240 79 253 190 31 -10 42 -13 10 hvcurveto
          -81 -38 -87 -153 -53 -97 6 37 20 202 9 62 rrcurveto
          83 12 6 -61 callsubr
          endchar
        </CharString>
        <CharString name="backslash">
          55 -62 -21 921 -20 hstem
          114 838 rmoveto
          -49 -50 87 -286 109 -341 89 -244 rlinecurve
          41 54 -82 217 -104 320 -91 330 rlinecurve
          endchar
        </CharString>
        <CharString name="bar">
          -177 -192 -21 1109 -20 hstem
          116 51 vstem
          173 896 rmoveto
          -58 -42 2 -1067 44 44 rlineto
          endchar
        </CharString>
        <CharString name="braceleft">
          -61 -95 -21 935 -20 hstem
          380 819 rmoveto
          -276 167 -388 -49 -141 hvcurveto
          -2 -5 -7 -1 -7 hhcurveto
          -16 -27 13 -1 42 -3 20 -29 4 -35 rlinecurve
          8 -79 -68 -136 9 -87 6 -51 36 -37 69 -10 10 14 rcurveline
          -43 2 -16 24 -3 35 -9 82 61 143 -9 87 -5 43 -30 32 -37 13 rrcurveto
          2 -6 -15 2 -12 hhcurveto
          2 3 rlineto
          17 9 1 2 5 hvcurveto
          177 55 -133 358 190 24 rrcurveto
          endchar
        </CharString>
        <CharString name="braceright">
          -72 -96 -21 936 -20 hstem
          154 819 rmoveto
          -8 -13 44 -6 17 -30 5 -42 rlinecurve
          8 -75 -34 -114 8 -81 rrcurveto
          -49 5 23 -43 62 hhcurveto
          7 hlineto
          -3 -3 -255 -9 184 -447 -176 -9 rlinecurve
          -4 -15 283 31 -232 433 215 5 rlinecurve
          11 24 -17 1 -12 3 -4 2 rlinecurve
          -23 8 -10 24 -3 31 -9 84 43 140 -5 53 rrcurveto
          56 -6 -35 41 -79 hhcurveto
          endchar
        </CharString>
        <CharString name="bracketleft">
          -14 -88 24 861 23 hstem
          235 820 rmoveto
          -52 -354 -40 -296 -30 -258 rrcurveto
          191 hlineto
          19 24 rlineto
          -147 hlineto
          28 233 43 302 49 326 rrcurveto
          128 hlineto
          18 23 rlineto
          endchar
        </CharString>
        <CharString name="bracketright">
          -20 -88 24 861 23 hstem
          135 820 rmoveto
          -18 -23 rlineto
          144 hlineto
          -41 -326 -40 -295 -34 -240 rrcurveto
          -133 hlineto
          -19 -24 rlineto
          207 hlineto
          39 264 42 290 45 354 rrcurveto
          endchar
        </CharString>
        <CharString name="breve">
          789 47 28 -20 hstem
          292 863 rmoveto
          -20 -29 -30 -7 -30 hhcurveto
          -38 -36 12 16 -28 hvcurveto
          -43 -44 rlineto
          -20 30 39 -11 38 hhcurveto
          52 51 20 46 31 hvcurveto
          endchar
        </CharString>
        <CharString name="brokenbar">
          -186 -142 -21 1019 -20 hstem
          92 52 vstem
          92 236 rmoveto
          -399 vlineto
          42 44 4 355 rlineto
          10 620 rmoveto
          -58 -42 3 -342 rlineto
          47 hlineto
          endchar
        </CharString>
        <CharString name="bullet">
          88 180 -21 hstem
          281 443 rmoveto
          -78 -1 -74 -62 -98 vvcurveto
          -70 50 -53 68 69 84 52 107 71 -50 55 -69 -1 vhcurveto
          endchar
        </CharString>
        <CharString name="c">
          -123 16 callsubr
          hstem
          6 68 vstem
          236 42 callsubr
          -170 71 -24 25 hvcurveto
          -71 callsubr
          -115 -76 -55 rrcurveto
          -48 26 -18 61 67 vvcurveto
          136 60 141 76 24 20 -12 -27 16 vhcurveto
          44 52 49 callsubr
        </CharString>
        <CharString name="caron">
          -52 656 -21 130 -20 hstem
          99 756 rmoveto
          -45 -21 41 -47 57 -40 32 -13 rlinecurve
          -73 callsubr
          endchar
        </CharString>
        <CharString name="ccedilla">
          -124 -224 40 658 40 hstem
          3 68 31 45 vstem
          233 42 callsubr
          -130 41 -44 31 -14 hvcurveto
          -83 -70 -45 callgsubr
          11 10 20 17 21 18 77 40 114 144 84 126 -10 6 rcurveline
          -68 -98 -93 -115 -76 -55 rrcurveto
          -48 26 -18 61 67 vvcurveto
          136 60 141 76 24 20 -12 -27 16 vhcurveto
          44 52 49 callsubr
        </CharString>
        <CharString name="cedilla">
          -43 -224 40 205 -20 hstem
          246 45 vstem
          249 21 rmoveto
          -113 -95 -45 callgsubr
          14 12 26 22 25 22 rrcurveto
          endchar
        </CharString>
        <CharString name="cent">
          -91 -65 -21 725 -20 hstem
          15 57 vstem
          221 639 rmoveto
          -22 -142 rlineto
          -114 -47 -70 -140 -112 vvcurveto
          -79 35 -65 78 -9 vhcurveto
          -18 -113 38 -18 21 134 55 13 40 16 42 24 rlinecurve
          -6 13 -40 -17 -44 -13 -42 -7 rlinecurve
          60 387 22 -1 24 -6 26 -14 rlinecurve
          13 21 17 17 13 18 rrcurveto
          0 -27 15 -41 -14 -13 -1 -3 -13 vhcurveto
          19 117 rlineto
          -188 -357 rmoveto
          85 33 86 88 19 vhcurveto
          -58 -368 rlineto
          -38 30 -25 74 74 vvcurveto
          endchar
        </CharString>
        <CharString name="circumflex">
          671 -21 115 -20 hstem
          190 765 -103 callsubr
        </CharString>
        <CharString name="colon">
          -129 10 -21 520 -20 hstem
          60 65 -76 callgsubr
          -34 306 -56 callsubr
        </CharString>
        <CharString name="comma">
          -162 -94 -21 248 -20 hstem
          120 133 rmoveto
          -53 callsubr
          -12 -12 -20 -41 -55 vhcurveto
          15 -11 67 85 29 65 37 callsubr
        </CharString>
        <CharString name="commaaccent">
          -234 16 -21 245 -20 hstem
          109 240 -68 callgsubr
        </CharString>
        <CharString name="copyright">
          411 1 46 95 28 329 28 93 46 hstemhm
          120 211 -70 70 hintmask 11111000
          479 666 -13 callsubr
          337 47 -573 -408 -332 -48 573 404 hhcurveto
          15 -93 rmoveto
          hintmask 11110100
          -141 -65 -106 -79 -143 93 -57 108 40 65 16 15 14 hvcurveto
          14 64 rlineto
          -15 hlineto
          -27 -17 -29 -40 -63 hhcurveto
          -93 -47 81 95 81 49 72 84 74 24 -44 -27 3 hvcurveto
          16 63 hlineto
          19 -13 -53 17 -48 hhcurveto
          endchar
        </CharString>
        <CharString name="currency">
          390 70 -21 29 56 315 56 30 -20 hstem
          215 56 317 56 vstem
          674 89 rmoveto
          -24 25 -26 25 -25 23 rrcurveto
          6 4 39 76 50 vvcurveto
          43 -15 47 -30 39 vhcurveto
          25 25 26 23 24 26 -13 13 -13 14 -13 13 -25 -25 -25 -24 -25 -26 rrcurveto
          31 -37 -52 14 -41 hhcurveto
          -37 -49 -11 -34 -45 hvcurveto
          -26 26 -24 24 -25 25 -13 -13 -13 -14 -13 -13 25 -26 25 -23 25 -25 rrcurveto
          -28 -33 -17 -47 -49 vvcurveto
          -50 19 -44 26 -36 vhcurveto
          -25 -23 -25 -25 -25 -25 13 -13 13 -13 13 -14 25 25 24 24 26 26 rrcurveto
          -35 41 53 -11 37 hhcurveto
          49 47 17 29 34 hvcurveto
          26 -26 24 -24 25 -25 13 14 13 13 13 13 rrcurveto
          -86 204 rmoveto
          -86 -71 -73 -87 -88 -71 73 86 83 68 73 92 78 79 -63 -93 vhcurveto
          endchar
        </CharString>
        <CharString name="d">
          -14 11 -21 460 51 297 53 hstemhm
          3 67 0 153 hintmask 11110000
          537 40 callsubr
          -101 -129 -116 -20 hvcurveto
          -19 -110 rlineto
          3 -8 -12 2 -14 hhcurveto
          -119 -62 -82 -141 -43 hvcurveto
          -11 -45 -13 -74 14 callsubr
          165 50 78 29 callgsubr
          rrcurveto
          hintmask 11101000
          -11 -91 -21 -61 -81 -54 callsubr
          71 30 110 -57 callgsubr
          -29 callsubr
          -91 -83 -99 -61 -44 -1 callgsubr
          46 113 13 213 2 callgsubr
          -323 -401 -45 callsubr
          endchar
        </CharString>
        <CharString name="dagger">
          94 -82 -21 545 53 260 -20 hstem
          328 755 rmoveto
          -77 -64 -5 -64 -6 -66 -7 -68 rlinecurve
          -102 hlineto
          -40 -50 137 -1 -19 -172 -26 -184 -35 -189 rlinecurve
          51 23 31 156 35 193 25 173 rlinecurve
          52 2 38 5 31 6 26 40 rcurveline
          -140 43 callgsubr
        </CharString>
        <CharString name="daggerdbl">
          72 -81 -21 329 53 162 53 260 -20 hstem
          339 755 rmoveto
          -72 -50 -6 -68 -7 -76 -7 -68 rlinecurve
          -95 hlineto
          -40 -50 rlineto
          35 44 -1 51 hhcurveto
          -6 -54 -6 -54 -8 -56 rrcurveto
          -87 hlineto
          -40 -50 rlineto
          33 33 -1 54 hhcurveto
          -14 -107 -18 -111 -21 -111 52 34 rcurveline
          18 92 19 100 17 103 rrcurveto
          42 37 4 9 39 hvcurveto
          23 40 rlineto
          -133 hlineto
          9 53 9 55 7 54 rrcurveto
          37 33 5 10 33 hvcurveto
          22 38 rlineto
          -118 43 callgsubr
        </CharString>
        <CharString name="degree">
          -68 461 25 251 28 hstem
          35 39 214 40 vstem
          190 765 rmoveto
          -82 -73 -64 -98 -91 63 -51 72 84 74 64 96 95 -65 49 -73 hvcurveto
          -11 -28 rmoveto
          67 42 -50 -81 -72 -46 -48 -53 -68 -47 48 85 73 46 45 59 hvcurveto
          endchar
        </CharString>
        <CharString name="dieresis">
          64 692 -21 107 -20 hstem
          138 728 -105 callsubr
        </CharString>
        <CharString name="divide">
          105 79 -21 233 54 213 -20 hstem
          208 489 rmoveto
          30 -28 11 -29 28 -18 65 63 rcurveline
          -16 30 -15 31 -31 20 rrcurveto
          -72 -424 rmoveto
          31 -19 10 -38 28 -19 65 64 rcurveline
          -30 19 -1 42 -31 19 rrcurveto
          -251 89 rmoveto
          48 callgsubr
          54 54 rcurveline
          48 callsubr
          rrcurveto
          endchar
        </CharString>
        <CharString name="dollar">
          -83 -128 -21 145 46 596 -20 hstem
          49 50 100 65 vstem
          239 638 rmoveto
          -47 -32 -17 -110 rlineto
          -69 -16 -57 -38 -72 -70 150 -88 -156 vvcurveto
          -9 -23 -22 -5 -22 hhcurveto
          -34 -33 12 25 -29 hvcurveto
          -51 -46 rlineto
          -16 48 -21 48 10 10 1 1 12 vhcurveto
          -21 -147 47 32 20 126 rlineto
          57 20 48 38 48 vvcurveto
          103 -164 143 -1 69 vhcurveto
          18 16 46 17 36 hhcurveto
          25 21 -8 -22 3 hvcurveto
          30 13 28 20 17 24 rrcurveto
          12 -55 0 -14 -11 -10 0 -1 -11 vhcurveto
          endchar
        </CharString>
        <CharString name="dotaccent">
          -59 720 -21 137 -20 hstem
          179 8 callsubr
        </CharString>
        <CharString name="dotaccentcmb">
          -114 720 -21 137 -20 hstem
          188 8 callsubr
        </CharString>
        <CharString name="dotlessi">
          -209 53 callsubr
          hstem
          156 -41 callsubr
          endchar
        </CharString>
        <CharString name="dotlessj">
          -235 -216 63 668 -68 callsubr
          endchar
        </CharString>
        <CharString name="e">
          -136 -89 callsubr
          endchar
        </CharString>
        <CharString name="eacute">
          -129 -89 callsubr
          154 244 -102 callgsubr
        </CharString>
        <CharString name="ecircumflex">
          -136 16 callsubr
          248 -20 hstem
          4 67 164 58 vstem
          208 -100 callgsubr
          22 248 -103 callsubr
        </CharString>
        <CharString name="edieresis">
          -134 16 callsubr
          218 -20 -97 callgsubr
          -148 168 -105 callsubr
        </CharString>
        <CharString name="egrave">
          -136 -89 callsubr
          -167 205 -97 callsubr
        </CharString>
        <CharString name="eight">
          47 -2 42 573 39 hstemhm
          37 68 10 50 176 72 -52 52 hintmask 11110100
          115 507 rmoveto
          -53 34 -36 53 -53 vhcurveto
          -88 -64 -77 -66 -88 vvcurveto
          -86 71 -63 90 110 105 96 95 89 -56 52 -72 57 vhcurveto
          59 58 59 56 58 vvcurveto
          66 -41 27 -54 -84 -109 -67 -78 vhcurveto
          246 -338 rmoveto
          -78 -48 -51 -84 -71 -53 50 74 77 57 51 66 50 vhcurveto
          81 -65 52 -45 -63 vvcurveto
          hintmask 11111000
          -20 370 rmoveto
          -45 -43 -54 -39 -31 vhcurveto
          -47 39 -47 46 39 vvcurveto
          53 46 27 44 44 42 -25 -49 vhcurveto
          endchar
        </CharString>
        <CharString name="ellipsis">
          294 10 -21 145 -20 hstem
          61 65 -76 callgsubr
          151 -69 -76 callgsubr
          148 -69 -56 callsubr
        </CharString>
        <CharString name="emdash">
          284 278 54 hstem
          103 332 21 callsubr
          589 7 callsubr
          endchar
        </CharString>
        <CharString name="endash">
          90 275 54 hstem
          89 329 21 callsubr
          398 hlineto
          33 54 rlineto
          endchar
        </CharString>
        <CharString name="equal">
          198 121 54 134 54 hstem
          83 175 19 callsubr
          -444 188 19 callsubr
          endchar
        </CharString>
        <CharString name="estimated">
          560 -21 21 -21 144 218 20 341 21 hstemhm
          85 151 524 152 hintmask 01111100
          912 341 rmoveto
          10 vlineto
          205 -186 167 -228 -229 -184 -167 -205 -206 184 -166 229 133 120 57 87 75 vhcurveto
          -61 hlineto
          hintmask 10111100
          -74 -65 -95 -49 -106 hhcurveto
          -99 -89 44 67 -65 hvcurveto
          -7 5 -3 8 10 vvcurveto
          202 vlineto
          4 2 1 4 vhcurveto
          518 26 rmoveto
          -3 -1 -3 -4 vhcurveto
          -513 hlineto
          -4 -2 3 3 hvcurveto
          200 vlineto
          11 3 7 8 7 vhcurveto
          66 65 89 44 98 hhcurveto
          98 89 -43 -63 64 hvcurveto
          6 -7 4 -8 -9 vvcurveto
          endchar
        </CharString>
        <CharString name="eth">
          -64 12 -21 859 -20 hstem
          12 60 205 54 vstem
          46 611 rmoveto
          15 -36 119 65 rlineto
          63 -94 34 -122 -134 vvcurveto
          -115 -41 -100 -102 -44 vhcurveto
          -42 48 -20 65 66 vvcurveto
          94 40 95 71 62 vhcurveto
          -16 18 rlineto
          -84 -59 -71 -113 -129 vvcurveto
          -66 35 -96 60 -25 vhcurveto
          165 58 59 123 132 vvcurveto
          132 -35 132 -62 102 vhcurveto
          95 52 -16 46 -104 -61 -53 72 -70 53 -82 18 rlinecurve
          -48 -38 80 -24 67 -48 52 -65 rlinecurve
          endchar
        </CharString>
        <CharString name="exclam">
          -76 -6 -21 898 -20 hstem
          230 819 rmoveto
          -15 -214 -44 -211 -52 -212 25 -10 rcurveline
          108 249 24 172 38 278 rrcurveto
          -274 -822 -56 callsubr
        </CharString>
        <CharString name="exclamdown">
          -87 -298 54 callsubr
          203 381 rmoveto
          -107 -245 -23 -177 -38 -278 82 53 rcurveline
          15 214 44 211 52 212 rrcurveto
          -60 140 -56 callsubr
        </CharString>
        <CharString name="f">
          -210 -215 53 616 44 300 53 hstem
          337 -7 callgsubr
          35 callsubr
          rrcurveto
          -40 -2 -31 -1 0 vvcurveto
          -1 -27 -46 0 0 42 1 -36 callsubr
          51 7 23 11 rrcurveto
          1 11 29 0 0 -67 -4 -65 -3 hvcurveto
          29 callsubr
          5 185 112 19 callgsubr
        </CharString>
        <CharString name="ff">
          58 54 callgsubr
          960 53 hstem
          352 -7 callgsubr
          -6 -33 -5 -35 -5 -36 -25 -3 -25 -3 -27 -3 rrcurveto
          -1 -22 -45 0 hvcurveto
          36 4 29 3 28 3 -20 -144 -20 -158 -16 -128 -69 callgsubr
          22 155 13 98 12 101 65 7 50 6 66 8 -79 callsubr
          10 56 rlinecurve
          22 5 callgsubr
          57 7 32 2 38 5 19 47 rcurveline
          0 -22 -2 -117 -12 vhcurveto
          97 12 -1 200 136 hhcurveto
          50 hlineto
          40 53 rlineto
          -49 hlineto
          -113 -98 -110 -171 -23 hvcurveto
          -4 -25 -4 -25 -2 -25 -29 -3 -65 -7 -91 -11 2 18 3 18 2 20 rrcurveto
          83 9 9 185 112 hhcurveto
          64 38 callsubr
        </CharString>
        <CharString name="ffi">
          283 54 callgsubr
          612 48 300 53 hstem
          352 -7 callgsubr
          -14 -100 -26 -3 -26 -4 -28 -4 rlinecurve
          55 callsubr
          hvcurveto
          36 5 32 5 28 3 -21 -154 -16 callgsubr
          159 14 99 12 103 65 6 52 3 63 5 -79 callsubr
          8 56 rlinecurve
          24 -57 callsubr
          40 25 -8 -8 18 -6 callgsubr
          9 -16 -31 6 -36 hhcurveto
          -3 callsubr
          35 callsubr
          -28 -3 -67 -4 -89 -11 2 17 2 18 2 18 1 6 56 callsubr
          7 rrcurveto
          90 9 16 157 103 hhcurveto
          64 38 callsubr
        </CharString>
        <CharString name="ffl">
          295 54 callgsubr
          583 57 320 53 -38 38 hstemhm
          hintmask 11110000
          659 31 callsubr
          52 callgsubr
          -36 -4 -67 -6 -91 -7 2 17 2 17 2 18 1 6 0 5 1 7 7 69 11 112 52 47 rrcurveto
          14 15 19 8 88 hhcurveto
          40 53 rlineto
          -97 -47 -20 -37 -38 hvcurveto
          -51 -49 -37 -78 -13 -97 -14 -96 rcurveline
          -26 -2 -27 -2 -29 -2 rrcurveto
          -1 -20 -47 0 hvcurveto
          35 2 32 3 30 2 -21 -153 -16 callgsubr
          157 14 99 12 102 99 8 65 6 26 3 -79 callsubr
          8 56 rlinecurve
          24 5 callgsubr
          49 4 105 13 32 11 rrcurveto
          -27 -167 -34 -198 -89 vvcurveto
          -40 callgsubr
          37 callgsubr
          -250 -353 49 callgsubr
          hintmask 11101000
          1 callsubr
        </CharString>
        <CharString name="fi">
          17 -247 -21 722 44 300 53 hstem
          327 -7 callgsubr
          35 callsubr
          rrcurveto
          -41 -4 -35 -5 0 vvcurveto
          55 callsubr
          0 39 4 50 3 hvcurveto
          -79 callsubr
          10 56 rlinecurve
          22 -57 callsubr
          50 38 callsubr
        </CharString>
        <CharString name="five">
          29 -159 54 258 61 235 66 -1 -20 hstemhm
          321 59 hintmask 11011000
          191 57 callgsubr
          -20 -8 -33 -30 -13 -16 -22 -80 -21 -159 -7 -73 8 -12 rcurveline
          9 31 35 8 35 hhcurveto
          73 64 -29 -102 -100 -58 -27 -57 -55 -73 24 23 -48 hvcurveto
          -42 -61 rlineto
          -24 40 67 -16 49 hhcurveto
          98 138 71 156 87 -51 59 -90 -62 -51 -35 -3 -5 hvcurveto
          -3 5 9 74 25 131 16 64 rlinecurve
          6 4 rlineto
          hintmask 11101000
          -3 17 23 -2 43 hhcurveto
          26 34 1 2 48 hvcurveto
          14 15 25 26 21 20 rrcurveto
          1 -39 -35 1 -34 hhcurveto
          hintmask 11011000
          -41 -39 -1 -46 hhcurveto
          endchar
        </CharString>
        <CharString name="fj">
          16 -215 62 -42 -21 670 44 300 53 hstemhm
          hintmask 10110000
          360 31 callsubr
          -58 -52 -23 -42 -40 hvcurveto
          -47 -49 -32 -75 -13 -92 35 callsubr
          rrcurveto
          -41 -4 -35 -5 0 vvcurveto
          55 callsubr
          0 39 4 -36 callsubr
          119 15 23 11 rrcurveto
          -25 -143 -33 -208 0 vvcurveto
          -158 -25 5 -128 -116 hhcurveto
          -20 -13 3 3 -10 hvcurveto
          -41 -64 rlineto
          hintmask 01110000
          -3 7 12 -2 10 hhcurveto
          119 98 126 256 38 hvcurveto
          52 349 rlineto
          0 -120 -7 -125 -10 vhcurveto
          10 74 2 129 57 62 rrcurveto
          21 20 26 14 35 hhcurveto
          58 38 callsubr
        </CharString>
        <CharString name="fl">
          31 -247 -21 1066 53 -38 38 hstemhm
          hintmask 11000000
          257 28 rmoveto
          -40 callgsubr
          -1 hlineto
          1 hlineto
          37 callgsubr
          52 callgsubr
          -41 -4 -35 -5 0 vvcurveto
          55 callsubr
          0 39 4 50 3 hvcurveto
          -79 callsubr
          10 56 rlinecurve
          22 5 callgsubr
          49 4 105 13 32 11 rrcurveto
          -27 -167 -34 -198 -89 vvcurveto
          -120 470 49 callgsubr
          hintmask 10100000
          1 callsubr
        </CharString>
        <CharString name="florin">
          -57 -135 53 443 51 226 53 hstem
          362 691 rmoveto
          -113 -78 -95 -185 -21 hvcurveto
          -65 -2 -28 -2 -31 -8 -21 -40 rcurveline
          1 34 34 1 40 hhcurveto
          29 hlineto
          -43 -289 rlineto
          -130 -20 -51 -24 -47 callgsubr
          16 15 -2 13 hhcurveto
          125 84 96 194 30 hvcurveto
          11 74 8 61 9 70 52 2 57 4 46 10 26 36 rcurveline
          -174 hlineto
          165 20 17 61 67 19 callgsubr
        </CharString>
        <CharString name="foundryicon">
          807 44 -21 250 52 196 48 hstem
          380 52 473 52 194 50 vstem
          186 157 rmoveto
          40 31 -87 85 rlineto
          262 hlineto
          -152 57 156 -98 53 hhcurveto
          48 161 98 152 59 hvcurveto
          216 -116 50 284 -50 -116 -201 hlineto
          4 20 3 20 22 vvcurveto
          108 -57 74 -96 -68 -38 -24 -44 -30 vhcurveto
          43 -31 -32 25 -70 hhcurveto
          -93 -62 -73 -109 -22 2 -20 4 -20 hvcurveto
          -248 hlineto
          88 84 -40 32 -146 -141 rlineto
          628 -227 rmoveto
          -57 8 -109 83 -47 109 rrcurveto
          180 52 -198 hlineto
          -3 16 -2 17 18 vvcurveto
          89 41 56 73 63 35 -40 -44 16 vhcurveto
          16 hlineto
          43 16 34 41 64 hhcurveto
          75 40 -57 -86 -157 -169 -138 -68 -10 hvcurveto
          endchar
        </CharString>
        <CharString name="four">
          27 -151 -21 189 45 457 -20 hstem
          231 62 rmoveto
          -65 -2 -62 4 -63 -5 -3 3 rcurveline
          83 85 122 178 48 119 2 -3 rcurveline
          -16 -128 -24 -121 -22 -130 rrcurveto
          106 457 rmoveto
          -25 -15 -25 -20 -23 -28 -57 -127 -189 -259 -58 -44 7 -14 rcurveline
          3 19 18 2 19 73 64 0 64 hhcurveto
          -13 -96 -5 -33 -2 -26 -2 -20 4 -10 5 -4 48 60 rcurveline
          8 42 6 34 9 55 79 6 52 16 36 21 -5 15 rcurveline
          -8 -41 -63 -5 -50 hhcurveto
          28 137 36 175 112 vvcurveto
          22 -7 9 -10 vhcurveto
          endchar
        </CharString>
        <CharString name="fraction">
          405 27 -21 812 -20 hstem
          700 818 rmoveto
          -75 callgsubr
          endchar
        </CharString>
        <CharString name="g">
          -17 -215 57 608 51 hstem
          21 67 vstem
          232 -51 callsubr
          -13 -91 -12 -89 -64 callgsubr
          23 165 13 125 18 136 rrcurveto
          endchar
        </CharString>
        <CharString name="germandbls">
          32 -216 60 152 38 762 27 hstemhm
          216 63 98 51 -51 63 hintmask 11111000
          340 823 rmoveto
          -126 -90 -99 -143 -28 hvcurveto
          -38 -196 -10 -197 -32 -178 rrcurveto
          -147 -27 -20 -19 -82 hhcurveto
          -17 -20 2 3 -22 hvcurveto
          -40 -51 rlineto
          -9 18 19 -5 21 hhcurveto
          88 115 81 152 25 hvcurveto
          33 203 16 199 28 159 rrcurveto
          115 20 64 103 85 hhcurveto
          43 14 -42 -55 hvcurveto
          -147 -161 -74 -100 -88 162 -74 -86 vvcurveto
          -32 -30 -64 -46 -25 -41 14 24 -30 vhcurveto
          -51 -53 rlineto
          -21 23 34 -2 30 hhcurveto
          91 95 82 91 hvcurveto
          101 -149 66 60 vvcurveto
          hintmask 11110100
          110 161 92 120 vvcurveto
          60 -26 45 -74 vhcurveto
          endchar
        </CharString>
        <CharString name="grave">
          597 -21 hstem
          85 758 rmoveto
          15 -39 rlineto
          -99 callgsubr
        </CharString>
        <CharString name="greater">
          193 32 -21 470 -20 hstem
          106 481 rmoveto
          -39 -40 51 callsubr
          rlinecurve
          -14 callsubr
        </CharString>
        <CharString name="greaterequal">
          253 5 54 580 -20 hstem
          55 5 41 callsubr
          18 540 rmoveto
          51 callsubr
          rrcurveto
          -14 callsubr
        </CharString>
        <CharString name="guillemotleft">
          285 43 callsubr
          289 483 0 callgsubr
          217 49 0 callgsubr
          endchar
        </CharString>
        <CharString name="guillemotright">
          235 43 callsubr
          346 434 -9 callsubr
          -301 -49 -9 callsubr
          endchar
        </CharString>
        <CharString name="guilsinglleft">
          57 43 callsubr
          305 483 rmoveto
          -34 -50 -74 -82 -103 -73 101 -69 75 -12 callgsubr
          endchar
        </CharString>
        <CharString name="guilsinglright">
          1 101 -21 400 -20 hstem
          146 480 rmoveto
          -39 -46 32 -37 86 -79 65 -41 rlinecurve
          1 hlineto
          -68 -38 -82 -70 -31 -31 39 28 callgsubr
          72 -72 80 -34 49 rrcurveto
          endchar
        </CharString>
        <CharString name="h">
          11 35 callgsubr
          295 73 vstem
          331 23 callsubr
          -6 -1 -7 -6 vvcurveto
          -23 7 -23 -10 callgsubr
          76 68 rrcurveto
          -139 -46 -127 -129 vvcurveto
          -13 1 -83 callsubr
          -2 2 rcurveline
          24 135 48 119 125 vvcurveto
          31 -4 40 -13 10 vhcurveto
          -81 -38 -93 -151 -76 -137 45 342 rcurveline
          83 11 7 -61 callsubr
          endchar
        </CharString>
        <CharString name="hbar">
          21 11 -21 630 50 128 53 hstem
          303 73 vstem
          339 31 callsubr
          -94 -90 -96 -95 -35 hvcurveto
          -19 -2 -20 -3 -22 -3 rrcurveto
          0 -28 -30 -18 -22 vhcurveto
          35 6 31 5 28 3 rrcurveto
          -3 -1 -2 -3 vvcurveto
          -73 -533 rlineto
          -1 -6 -1 -7 -6 vvcurveto
          -23 7 -23 -10 callgsubr
          76 68 rrcurveto
          -139 -46 -127 -129 vvcurveto
          -13 1 -83 callsubr
          -2 2 rcurveline
          24 135 48 119 125 vvcurveto
          31 -4 40 -13 10 vhcurveto
          -81 -38 -93 -151 -76 -137 45 342 rcurveline
          3 24 3 32 5 34 rrcurveto
          2 30 27 1 28 hhcurveto
          19 19 0 -1 20 hvcurveto
          49 45 rlineto
          1 -26 -27 2 -36 hhcurveto
          -26 -31 -1 -3 -38 hvcurveto
          69 16 29 63 66 -86 callgsubr
          endchar
        </CharString>
        <CharString name="hungarumlaut">
          97 602 -21 hstem
          273 758 -1 callsubr
          222 39 -1 callsubr
          endchar
        </CharString>
        <CharString name="hyphen">
          -34 293 53 32 -20 hstem
          73 346 rmoveto
          -28 -53 106 -1 100 11 92 21 rlinecurve
          31 54 -96 -20 -99 -13 -106 1 rlinecurve
          endchar
        </CharString>
        <CharString name="i">
          -213 11 -21 745 -20 hstem
          154 515 rmoveto
          -69 -11 -64 -91 0 vvcurveto
          -2 -11 70 51 rlineto
          -30 -192 -32 -118 -17 callsubr
          -31 172 -38 callsubr
          endchar
        </CharString>
        <CharString name="iacute">
          -215 11 -21 hstem
          147 515 rmoveto
          -69 -11 -64 -91 0 vvcurveto
          -2 -11 70 51 rlineto
          -30 -192 -32 -118 -17 callsubr
          147 245 -102 callgsubr
        </CharString>
        <CharString name="icircumflex">
          -213 11 -21 776 -20 hstem
          151 515 rmoveto
          -69 -11 -64 -91 0 vvcurveto
          -2 -11 70 51 rlineto
          -30 -192 -32 -118 -17 callsubr
          2 251 -103 callsubr
        </CharString>
        <CharString name="idieresis">
          -210 11 -21 768 -20 hstem
          155 515 rmoveto
          -69 -11 -64 -91 0 vvcurveto
          -2 -11 70 51 rlineto
          -30 -192 -32 -118 -17 callsubr
          -170 193 -105 callsubr
        </CharString>
        <CharString name="igrave">
          -212 11 -21 hstem
          152 515 rmoveto
          -69 -11 -64 -91 0 vvcurveto
          -2 -11 70 51 rlineto
          -30 -192 -32 -118 -17 callsubr
          -195 209 -97 callsubr
        </CharString>
        <CharString name="ij">
          -14 -216 63 888 -20 hstem
          377 15 callgsubr
          70 51 -25 -168 -66 -92 -81 -97 -62 -44 rlinecurve
          -2 3 -22 callgsubr
          rlinecurve
          -93 callgsubr
          66 28 102 120 84 118 -18 -123 rcurveline
          -63 callsubr
          22 518 -38 callsubr
          -280 -45 -38 callsubr
          endchar
        </CharString>
        <CharString name="infinity">
          367 140 55 237 52 hstem
          6 37 702 37 vstem
          224 484 rmoveto
          -121 -97 -105 -104 -105 84 -30 47 110 70 73 74 68 hvcurveto
          -84 67 68 -63 81 hhcurveto
          86 95 103 94 87 -43 60 -83 -121 -55 -64 -76 -73 hvcurveto
          58 -45 -58 82 -80 hhcurveto
          -37 -52 rmoveto
          66 58 -54 -72 56 hvcurveto
          -41 -33 -64 -70 -91 hhcurveto
          -86 -50 65 36 56 31 80 113 hvcurveto
          558 -125 rmoveto
          -63 -43 -50 -78 -55 -45 21 111 -102 vhcurveto
          57 55 60 49 84 hhcurveto
          74 50 -61 -64 hvcurveto
          endchar
        </CharString>
        <CharString name="integral">
          44 872 51 hstem
          433 923 rmoveto
          -55 -71 -60 -117 -20 hvcurveto
          -42 -250 -45 -280 -35 -201 -28 -163 -41 15 -41 75 -70 -42 rcurveline
          100 -142 112 124 46 272 19 114 40 255 44 261 rrcurveto
          65 11 10 23 20 hhcurveto
          32 29 -40 -24 18 hvcurveto
          48 49 rlineto
          34 -17 -31 32 -33 hhcurveto
          endchar
        </CharString>
        <CharString name="itilde">
          -197 11 -21 664 36 callgsubr
          hintmask 11000000
          172 -41 callsubr
          145 222 -19 callgsubr
          hintmask 10100000
          -78 callgsubr
          hintmask 11000000
          -60 callsubr
        </CharString>
        <CharString name="j">
          -235 -216 63 885 -68 callsubr
          22 518 -38 callsubr
          endchar
        </CharString>
        <CharString name="jcircumflex">
          -239 -216 63 918 -68 callsubr
          61 599 -103 callsubr
        </CharString>
        <CharString name="k">
          21 16 callsubr
          284 53 hstem
          322 56 vstem
          327 -74 callsubr
          endchar
        </CharString>
        <CharString name="kcommaaccent">
          4 -262 -21 757 40 284 53 hstem
          335 56 vstem
          340 -74 callsubr
          -196 -889 -68 callgsubr
        </CharString>
        <CharString name="kgreenlandic">
          26 11 -21 485 40 hstem
          327 56 vstem
          155 515 rmoveto
          -85 callsubr
          -98 vvcurveto
          -30 11 -15 19 -10 vhcurveto
          8 31 3 9 6 25 25 111 33 197 22 152 rrcurveto
          87 -68 rmoveto
          18 25 19 10 7 hhcurveto
          25 -66 callgsubr
          -33 -47 -36 -21 -22 vhcurveto
          endchar
        </CharString>
        <CharString name="l">
          -208 35 callgsubr
          331 31 callsubr
          -115 -103 -140 -105 -15 hvcurveto
          -25 -177 -55 -288 -113 vvcurveto
          -52 callsubr
          5 185 112 hhcurveto
          30 19 -3 -3 14 -6 callgsubr
          3 -12 -21 2 -16 hhcurveto
          endchar
        </CharString>
        <CharString name="ldot">
          -38 35 callgsubr
          346 31 callsubr
          -115 -103 -140 -105 -15 hvcurveto
          -25 -177 -55 -288 -113 -54 callsubr
          44 19 61 57 59 75 -9 12 rcurveline
          -42 -43 -34 -35 -32 -23 -3 2 rcurveline
          46 114 12 212 2 callgsubr
          -105 -542 rmoveto
          23 -20 27 -22 10 -17 65 66 rcurveline
          -12 17 -25 34 -21 15 rrcurveto
          endchar
        </CharString>
        <CharString name="less">
          234 32 -21 470 -20 hstem
          532 481 -28 callsubr
        </CharString>
        <CharString name="lessequal">
          267 5 54 590 -20 hstem
          145 59 19 callsubr
          -86 590 -28 callsubr
        </CharString>
        <CharString name="logicalnot">
          162 76 -21 218 40 hstem
          487 43 vstem
          62 273 rmoveto
          393 hlineto
          26 6 0 -38 hvcurveto
          1 -180 42 28 rlineto
          190 vlineto
          25 -15 15 -20 vhcurveto
          -410 hlineto
          endchar
        </CharString>
        <CharString name="lozenge">
          90 -57 -21 717 -20 hstem
          270 639 rmoveto
          -1 -1 0 -1 -1 hvcurveto
          -27 -18 -11 -9 -3 -7 -41 -98 -74 -141 -57 -91 52 -79 89 -176 24 -91 rrcurveto
          -5 1 4 -1 3 hhcurveto
          2 2 1 1 2 hvcurveto
          11 8 18 17 9 11 40 96 71 133 57 88 -52 81 -92 180 -21 95 rrcurveto
          4 -1 -1 2 -2 hhcurveto
          -18 -636 rmoveto
          -34 84 -47 107 -59 86 rrcurveto
          5 vlineto
          47 85 37 105 46 79 36 -86 44 -108 59 -89 -47 -85 -34 -107 -48 -76 rrcurveto
          endchar
        </CharString>
        <CharString name="lslash">
          -173 35 callgsubr
          30 -10 rmoveto
          76 32 136 156 103 132 -10 6 rcurveline
          -83 -98 -108 -118 17 callgsubr
          30 75 16 119 14 115 32 21 32 19 38 18 17 56 rcurveline
          -45 -19 -29 -17 -39 -26 5 40 5 39 6 36 -25 callsubr
          -112 -105 -128 -117 -16 hvcurveto
          -32 -226 -56 -39 -14 -61 24 17 20 16 19 14 rlinecurve
          -10 -66 rlineto
          -13 -85 -17 -75 -76 vvcurveto
          -12 0 -12 1 -11 vhcurveto
          endchar
        </CharString>
        <CharString name="m">
          217 53 callsubr
          hstemhm
          291 74 90 118 -73 73 hintmask 11101000
          154 15 callgsubr
          66 48 3 -2 rlineto
          -9 -56 -47 -258 -80 vvcurveto
          -27 7 -19 16 -18 36 callsubr
          -134 -35 -113 -13 -117 vhcurveto
          -1 -5 0 -5 -4 vvcurveto
          -27 11 -13 11 -10 36 callsubr
          hintmask 11110000
          -65 callgsubr
          23 138 49 128 124 vvcurveto
          29 52 callsubr
          -75 -38 -97 -152 -63 -134 -1 callgsubr
          11 79 36 94 84 vvcurveto
          27 -8 30 -10 8 vhcurveto
          -75 -38 -97 -152 -63 -12 callsubr
          endchar
        </CharString>
        <CharString name="macron">
          -82 819 54 -39 -21 hstemhm
          hintmask 01000000
          103 865 rmoveto
          -46 -52 rlineto
          hintmask 10000000
          72 11 73 -3 61 -2 53 54 rcurveline
          -63 2 -85 6 -65 -16 rrcurveto
          endchar
        </CharString>
        <CharString name="minus">
          105 291 54 hstem
          83 345 rmoveto
          -54 -54 48 callgsubr
          rlinecurve
          54 54 48 callsubr
          rlinecurve
          endchar
        </CharString>
        <CharString name="mu">
          30 -215 -21 751 -20 hstem
          199 -59 callgsubr
          -32 -240 -23 -185 -34 -259 rlinecurve
          46 -1 14 84 9 83 12 74 rlinecurve
          94 84 65 112 56 114 3 -2 rcurveline
          -14 -79 -21 -113 -8 -130 72 33 114 139 41 60 -4 4 rcurveline
          -57 -71 -60 -59 -61 -56 -1 callgsubr
          8 19 6 19 5 27 rrcurveto
          25 138 34 205 0 vvcurveto
          -33 callgsubr
          -74 -70 -9 8 rcurveline
          18 152 26 157 28 144 rrcurveto
          endchar
        </CharString>
        <CharString name="multiply">
          117 18 -21 504 -20 hstem
          102 501 rmoveto
          -53 -52 53 -83 65 -69 72 -67 rlinecurve
          -194 -215 17 -18 194 214 65 -66 70 -65 60 -74 rlinecurve
          53 52 rlineto
          1 vlineto
          -58 76 -73 68 -68 68 194 216 rcurveline
          -22 14 -190 -211 -71 66 -64 67 -50 78 rlinecurve
          endchar
        </CharString>
        <CharString name="n">
          22 53 callsubr
          hstem
          305 73 vstem
          361 514 -91 callgsubr
          endchar
        </CharString>
        <CharString name="nacute">
          21 11 -21 767 -20 hstem
          316 73 vstem
          338 757 rmoveto
          -56 -23 -36 -71 -26 -83 32 -10 rcurveline
          34 71 42 52 60 42 rrcurveto
          -16 -221 -91 callgsubr
          endchar
        </CharString>
        <CharString name="nbspace">
          -234 endchar
        </CharString>
        <CharString name="nine">
          61 -117 73 183 58 272 57 hstem
          44 51 279 59 vstem
          279 526 rmoveto
          -129 -106 -116 -124 -80 39 -67 96 50 64 31 42 38 hvcurveto
          -7 17 rlineto
          -21 -37 -36 -11 -33 hhcurveto
          -70 -53 45 73 79 42 75 95 77 65 -64 -146 -164 -75 -139 -216 hvcurveto
          -57 -73 rlineto
          286 121 244 188 132 -55 79 -99 hvcurveto
          endchar
        </CharString>
        <CharString name="notequal">
          198 2 -21 140 54 134 54 153 -20 hstem
          278 54 vstem
          332 516 21 callsubr
          -99 -158 vlineto
          -54 -54 rlineto
          212 -134 -195 hlineto
          -54 -54 rlineto
          249 -140 7 callsubr
          86 178 vlineto
          54 54 rlineto
          -232 134 215 7 callsubr
          -269 hlineto
          endchar
        </CharString>
        <CharString name="ntilde">
          18 11 -21 662 36 callgsubr
          303 73 hintmask 11010000
          359 514 -91 callgsubr
          75 221 -19 callgsubr
          hintmask 10110000
          -78 callgsubr
          hintmask 11010000
          -60 callsubr
        </CharString>
        <CharString name="numbersign">
          196 -51 -21 231 54 185 54 187 -20 hstem
          485 639 rmoveto
          -58 -54 -18 -133 rlineto
          -119 hlineto
          26 187 -59 -54 -18 -133 rlineto
          -128 hlineto
          -54 -54 rlineto
          174 hlineto
          -25 -185 rlineto
          -95 hlineto
          -54 -54 rlineto
          141 hlineto
          -31 -231 59 54 24 177 rlineto
          118 hlineto
          -31 -231 58 54 24 177 rlineto
          120 7 callsubr
          -167 hlineto
          26 185 rlineto
          104 7 callsubr
          -151 hlineto
          -176 -54 rmoveto
          118 hlineto
          -25 -185 rlineto
          -119 hlineto
          endchar
        </CharString>
        <CharString name="o">
          -67 12 -21 521 -20 -78 callsubr
          endchar
        </CharString>
        <CharString name="oacute">
          -69 12 -21 -78 callsubr
          191 288 -102 callgsubr
        </CharString>
        <CharString name="ocircumflex">
          -75 12 -21 774 -20 -78 callsubr
          57 293 -103 callsubr
        </CharString>
        <CharString name="odieresis">
          -67 12 -21 741 -20 hstem
          7 53 callgsubr
          245 -100 callsubr
          -111 210 -105 callsubr
        </CharString>
        <CharString name="oe">
          99 12 -21 474 49 hstem
          5 50 callgsubr
          49 165 58 vstem
          243 -66 callsubr
          61 17 57 47 44 59 12 -57 29 -54 52 -12 -92 callsubr
          -84 -101 -72 -55 rrcurveto
          -49 45 -20 55 57 vvcurveto
          11 0 12 2 11 vhcurveto
          -42 callsubr
          -47 -70 -49 -76 -46 vhcurveto
          -13 52 -25 53 -36 18 rrcurveto
          -84 callgsubr
          230 -7 rmoveto
          22 5 -9 -12 -50 -79 -88 -78 -52 hvcurveto
          69 10 26 142 94 hhcurveto
          endchar
        </CharString>
        <CharString name="ogonek">
          -59 -224 40 208 -20 hstem
          77 56 vstem
          227 24 rmoveto
          -108 -78 -42 -41 -59 vvcurveto
          -43 29 -27 55 vhcurveto
          46 20 38 22 37 31 -10 17 rcurveline
          -29 -44 -44 -21 -18 hhcurveto
          -24 -9 15 21 53 60 62 51 43 hvcurveto
          endchar
        </CharString>
        <CharString name="ograve">
          -67 12 -21 hstem
          8 53 callgsubr
          246 -100 callsubr
          -134 247 -97 callsubr
        </CharString>
        <CharString name="one">
          -116 5 -21 535 -20 hstem
          219 519 rmoveto
          -42 -25 -78 -60 -35 -38 8 -12 rcurveline
          22 16 62 44 17 9 rrcurveto
          -19 -162 -43 -141 -144 vvcurveto
          -11 3 -8 4 -3 vhcurveto
          49 61 19 128 23 117 17 118 rlinecurve
          2 12 6 35 27 vvcurveto
          21 -2 16 -13 vhcurveto
          endchar
        </CharString>
        <CharString name="onehalf">
          618 1 -21 116 34 279 36 347 -20 hstem
          802 58 vstem
          726 -55 callgsubr
          295 -404 rmoveto
          10 26 36 15 28 hhcurveto
          26 20 -12 -41 -78 -107 -98 -82 -67 hvcurveto
          4 -17 rlineto
          211 hlineto
          70 48 -7 15 rlineto
          -18 -25 -34 -11 -48 hhcurveto
          -95 hlineto
          -2 6 rlineto
          73 56 100 98 90 vvcurveto
          48 -33 17 -41 -44 -46 -21 -27 -35 vhcurveto
          endchar
        </CharString>
        <CharString name="onequarter">
          595 1 -21 155 41 616 -20 hstem
          712 59 vstem
          680 -55 callgsubr
          387 -364 -18 callsubr
          11 81 62 -4 59 -35 callgsubr
          endchar
        </CharString>
        <CharString name="onesuperior">
          -126 427 -21 365 -20 hstem
          205 771 rmoveto
          -37 -18 -65 -42 27 callgsubr
          19 10 -15 -108 -17 -106 -15 -96 2 -4 rcurveline
          51 55 rlineto
          15 98 25 123 63 vvcurveto
          16 1 7 -9 3 vhcurveto
          endchar
        </CharString>
        <CharString name="ordfeminine">
          -131 410 -21 280 43 hstem
          212 712 rmoveto
          -88 -39 -48 -83 -24 hvcurveto
          -10 -33 -7 -47 -42 vvcurveto
          -26 3 -25 6 -19 vhcurveto
          67 55 42 61 41 64 7 11 rcurveline
          3 -2 -3 -6 -2 -5 -1 -5 rlinecurve
          -9 -62 -6 -47 -6 -55 4 -8 rcurveline
          22 12 35 33 23 24 -5 8 rcurveline
          -14 -13 -20 -17 -14 -12 -2 4 rcurveline
          21 60 11 61 10 54 20 105 rcurveline
          3 -17 -19 0 -29 hhcurveto
          -34 -43 rmoveto
          14 14 -1 -3 7 hvcurveto
          -15 -58 -67 -113 -41 -37 -5 26 8 73 5 24 rrcurveto
          69 14 9 20 57 hhcurveto
          endchar
        </CharString>
        <CharString name="ordmasculine">
          -103 415 -21 322 -20 hstem
          39 55 116 52 vstem
          205 716 rmoveto
          -88 -22 -78 -95 -89 vvcurveto
          -41 18 -60 38 -15 vhcurveto
          89 22 78 100 84 vvcurveto
          38 -21 63 -36 15 vhcurveto
          -23 -42 rmoveto
          27 -40 1 -33 -34 vvcurveto
          -62 -26 -47 -64 -24 vhcurveto
          -25 40 -1 33 34 vvcurveto
          61 25 45 63 27 vhcurveto
          endchar
        </CharString>
        <CharString name="oslash">
          -69 -15 -21 591 -20 hstem
          5 53 callgsubr
          327 555 rmoveto
          -47 -78 -10 15 -13 13 -14 7 rlinecurve
          -39 callsubr
          -37 8 -46 17 -38 vhcurveto
          -42 -70 21 -23 37 63 11 -16 14 -13 16 -7 rlinecurve
          -30 callgsubr
          36 -11 50 -19 40 vhcurveto
          53 89 rlineto
          -89 -264 rmoveto
          -115 -42 -86 -103 -44 vhcurveto
          -13 22 -8 21 -7 21 165 281 rcurveline
          7 -35 1 -32 -33 vvcurveto
          -43 196 rmoveto
          11 -21 9 -19 6 -19 -166 -278 rcurveline
          -5 32 0 29 31 -23 callsubr
          endchar
        </CharString>
        <CharString name="otilde">
          -70 12 -21 645 36 callgsubr
          5 50 callgsubr
          66 hintmask 11011000
          -90 callsubr
          185 247 -24 callgsubr
        </CharString>
        <CharString name="p">
          -48 -239 -21 260 54 464 -20 hstemhm
          80 184 0 72 hintmask 11110000
          142 518 rmoveto
          -89 callgsubr
          73 47 -30 -161 -16 -161 -25 -157 rlinecurve
          -24 -145 -6 -23 -11 callgsubr
          -9 21 hhcurveto
          hintmask 11101000
          105 90 224 23 callgsubr
          14 74 2 49 21 101 rrcurveto
          113 -89 rmoveto
          39 callsubr
          vhcurveto
          hintmask 11110000
          55 callgsubr
          hvcurveto
          32 callsubr
          endchar
        </CharString>
        <CharString name="paragraph">
          123 -214 53 308 33 425 29 164 53 hstemhm
          48 161 0 167 hintmask 11110100
          354 605 rmoveto
          16 6 -22 -33 -82 -26 -143 -27 -139 hvcurveto
          -5 -4 -6 -1 -4 hhcurveto
          -60 -40 73 85 146 37 121 108 hvcurveto
          245 246 rmoveto
          -124 -94 -123 -100 -11 hvcurveto
          4 -19 -19 2 -18 hhcurveto
          hintmask 11111000
          -140 -126 -118 -146 -157 100 -66 98 19 14 2 3 18 hvcurveto
          -22 -158 rlineto
          -116 -16 -50 -39 -60 callgsubr
          125 82 83 207 31 hvcurveto
          31 207 10 95 24 145 rrcurveto
          83 14 5 192 -64 callsubr
          endchar
        </CharString>
        <CharString name="parenleft">
          -20 -62 54 callsubr
          301 -68 rmoveto
          -113 78 -26 168 20 173 20 170 88 203 99 78 -11 14 rcurveline
          -137 -80 -105 -191 -22 -182 -23 -199 67 -168 130 -79 rrcurveto
          endchar
        </CharString>
        <CharString name="parenright">
          -49 -62 54 callsubr
          131 816 rmoveto
          -13 -15 113 -78 26 -168 -20 -173 rlinecurve
          -20 -170 -88 -203 -99 -78 11 -14 rcurveline
          137 80 105 191 22 182 23 199 -67 168 -130 79 rrcurveto
          endchar
        </CharString>
        <CharString name="partialdiff">
          111 -18 55 297 44 300 60 hstem
          50 59 308 45 vstem
          272 738 rmoveto
          -36 -47 -8 -35 -65 hvcurveto
          14 -29 rlineto
          8 30 29 4 25 hhcurveto
          128 67 -96 -148 -30 -4 -39 -7 -42 hvcurveto
          37 -37 -44 18 -54 hhcurveto
          -129 -92 -133 -137 -70 50 -56 68 182 112 251 259 146 -75 100 -115 hvcurveto
          -68 -701 rmoveto
          -74 1 -21 68 65 vvcurveto
          79 41 84 93 52 60 -37 -52 32 vhcurveto
          -109 -31 -59 -99 -93 hhcurveto
          endchar
        </CharString>
        <CharString name="percent">
          371 13 callsubr
          105 51 188 58 hintmask 1011111111000000
          600 319 -18 callgsubr
          -419 404 -18 callgsubr
          424 37 rmoveto
          hintmask 0111111111000000
          -75 callgsubr
          endchar
        </CharString>
        <CharString name="period">
          -164 10 -21 145 -20 hstem
          133 134 rmoveto
          -72 -69 28 -25 25 -34 16 -17 rlinecurve
          70 64 -14 22 -30 41 -23 18 rlinecurve
          endchar
        </CharString>
        <CharString name="periodcentered">
          -91 238 -21 173 -20 hstem
          178 390 rmoveto
          -84 -92 30 -27 28 -37 16 -17 rlinecurve
          90 89 -14 22 -40 44 -26 18 rlinecurve
          endchar
        </CharString>
        <CharString name="perthousand">
          539 13 callsubr
          36 51 188 49 188 58 hintmask 1011111111100000
          785 348 rmoveto
          -56 -43 -31 -41 -29 hvcurveto
          42 -16 -34 30 -59 hhcurveto
          4 callsubr
          53 55 29 43 37 hvcurveto
          -48 17 37 -24 38 hhcurveto
          9 callsubr
          -570 433 -15 callgsubr
          424 37 rmoveto
          hintmask 0111111111100000
          -75 callgsubr
          -157 -449 rmoveto
          60 20 -68 -41 hvcurveto
          hintmask 1011111111100000
          -20 callgsubr
          vhcurveto
          -333 433 -33 callsubr
          570 -433 -33 callsubr
          endchar
        </CharString>
        <CharString name="pi">
          133 -13 61 -49 -21 475 45 -45 61 19 -20 hstemhm
          381 66 hintmask 10101100
          260 57 callgsubr
          -63 -88 -57 -88 -28 hvcurveto
          8 -10 rlineto
          86 48 34 8 78 hhcurveto
          -78 -20 -1 -327 -136 hhcurveto
          -5 -5 0 1 -5 hvcurveto
          -12 -11 rlineto
          -28 14 24 -23 34 hhcurveto
          32 44 54 89 19 hvcurveto
          0 39 173 22 148 vhcurveto
          64 48 -7 64 hhcurveto
          -67 -91 -21 -184 -113 vvcurveto
          hintmask 01101100
          -34 2 -28 6 -16 vhcurveto
          81 57 51 38 43 64 -11 17 rcurveline
          -32 -42 -26 -25 -41 -27 rrcurveto
          -5 11 -2 21 27 vvcurveto
          100 28 180 27 44 vhcurveto
          45 31 17 64 34 hvcurveto
          -8 9 rlineto
          -20 -22 -26 -15 -48 hhcurveto
          hintmask 10010100
          -65 -56 16 -127 hhcurveto
          endchar
        </CharString>
        <CharString name="plus">
          187 69 -21 244 39 callgsubr
          583 -5 callgsubr
          endchar
        </CharString>
        <CharString name="plusminus">
          187 -2 54 325 39 callgsubr
          668 -5 callgsubr
          -292 -433 41 callsubr
          endchar
        </CharString>
        <CharString name="product">
          225 -82 -21 811 51 hstem
          221 759 rmoveto
          -52 -48 -92 -814 rlineto
          57 hlineto
          106 811 rlineto
          48 hlineto
          65 128 -8 -18 33 hvcurveto
          -90 -785 rlineto
          53 hlineto
          117 862 rlineto
          endchar
        </CharString>
        <CharString name="q">
          -46 -247 -21 718 51 17 -20 hstemhm
          3 67 hintmask 11010000
          214 -51 callsubr
          -10 -71 -14 -53 -24 -166 -15 -108 17 -58 -127 -52 11 -21 rcurveline
          212 123 -8 17 -24 -15 -23 -16 -32 -17 rlinecurve
          -5 5 45 53 -3 38 11 56 rlinecurve
          10 75 18 88 7 42 13 83 13 95 13 87 3 24 10 19 19 16 rrcurveto
          hintmask 10110000
          -6 13 rlineto
          -19 -19 -18 -5 -18 hhcurveto
          hintmask 11010000
          -20 -20 7 -20 hhcurveto
          endchar
        </CharString>
        <CharString name="question">
          -1 -6 -21 798 43 hstem
          71 73 205 69 vstem
          299 814 rmoveto
          -59 -46 -37 -35 -35 hvcurveto
          3 -15 rlineto
          29 34 37 15 42 hhcurveto
          46 28 -45 -60 -191 -269 -67 -9 -148 hvcurveto
          -1 -32 2 -36 16 -42 4 -1 rcurveline
          13 22 35 23 21 13 rrcurveto
          -12 20 -5 35 31 vvcurveto
          114 264 116 10 169 vhcurveto
          87 6 -51 35 -74 hhcurveto
          -229 -765 -56 callsubr
        </CharString>
        <CharString name="questiondown">
          -277 43 797 -20 hstem
          -20 69 205 73 vstem
          306 388 rmoveto
          -13 -22 -35 -23 -21 -13 rrcurveto
          12 -20 5 -35 -31 -114 -274 -117 -168 vvcurveto
          -87 45 -35 74 59 46 37 35 35 vhcurveto
          -3 15 rlineto
          -29 -34 -37 -15 -42 hhcurveto
          -46 -28 45 60 hvcurveto
          193 278 53 180 vvcurveto
          27 -4 29 -13 34 vhcurveto
          -141 107 -56 callsubr
        </CharString>
        <CharString name="quotedbl">
          -64 670 -21 231 -20 hstem
          117 880 -8 callgsubr
          102 19 -8 callgsubr
          endchar
        </CharString>
        <CharString name="quotedblbase">
          99 -87 26 callgsubr
          155 150 -50 callgsubr
        </CharString>
        <CharString name="quotedblleft">
          1 24 callsubr
          384 866 -43 callsubr
          -236 11 -43 callsubr
          endchar
        </CharString>
        <CharString name="quotedblright">
          52 24 callsubr
          127 866 -50 callgsubr
        </CharString>
        <CharString name="quoteleft">
          -212 24 callsubr
          163 866 -43 callsubr
          endchar
        </CharString>
        <CharString name="quoteright">
          -198 24 callsubr
          140 866 rmoveto
          -47 callsubr
        </CharString>
        <CharString name="quotesinglbase">
          -107 -87 26 callgsubr
          160 150 rmoveto
          -47 callsubr
        </CharString>
        <CharString name="quotesingle">
          -214 670 -21 231 -20 hstem
          143 880 -8 callgsubr
          endchar
        </CharString>
        <CharString name="r">
          -139 11 -21 469 56 hstem
          152 -94 callgsubr
          55 47 rlineto
          281 70 82 141 61 hhcurveto
          15 13 -4 -5 8 hvcurveto
          32 55 rlineto
          7 -10 -12 3 -13 hhcurveto
          -81 -64 -109 -168 -63 21 callgsubr
          endchar
        </CharString>
        <CharString name="radical">
          128 -141 -21 976 -20 hstem
          469 814 rmoveto
          -34 -14 -26 -202 -89 -494 -28 -160 rlinecurve
          -2 hlineto
          -25 67 -66 214 -23 61 -3 8 -6 1 -5 -3 rrcurveto
          -31 -19 -87 -59 1 vvcurveto
          1 -2 -13 0 vhcurveto
          0 57 23 17 7 vhcurveto
          10 4 7 -2 3 -11 19 -65 70 -204 48 -117 31 44 rcurveline
          38 189 94 532 33 211 rrcurveto
          endchar
        </CharString>
        <CharString name="rcaron">
          -137 11 -21 469 56 250 -20 hstem
          131 -48 callgsubr
          -70 220 -77 callsubr
          endchar
        </CharString>
        <CharString name="rcommaaccent">
          -122 -262 -21 742 56 hstem
          154 -48 callgsubr
          -112 -553 -68 callgsubr
        </CharString>
        <CharString name="registered">
          336 1 46 450 22 101 46 hstem
          65 44 159 65 142 61 128 46 vstem
          410 528 rmoveto
          -35 -41 -9 -57 hhcurveto
          -42 -16 hlineto
          12 -2 11 -3 10 -4 rrcurveto
          -323 vlineto
          -10 -3 -11 -3 -12 -2 rrcurveto
          -16 124 16 vlineto
          -10 2 -9 2 -7 3 rrcurveto
          318 vlineto
          5 18 23 4 22 hhcurveto
          41 38 -17 -56 -44 -25 -51 -73 -6 -7 1 2 -6 hvcurveto
          -4 -4 77 -111 62 -58 56 -36 rlinecurve
          18 26 -47 34 -40 62 -44 63 rlinecurve
          5 7 rlineto
          73 13 22 44 47 vvcurveto
          84 -67 25 -59 vhcurveto
          14 138 -13 callsubr
          171 96 -148 -145 -141 -90 -139 -201 -169 -95 147 146 141 89 139 199 hvcurveto
          endchar
        </CharString>
        <CharString name="ring">
          -90 698 142 hstemhm
          105 141 -22 22 hintmask 11000000
          169 840 -46 callsubr
          hintmask 10100000
          12 callgsubr
        </CharString>
        <CharString name="s">
          -131 -8 42 440 40 hstem
          38 64 87 49 vstem
          213 -55 callsubr
          endchar
        </CharString>
        <CharString name="scaron">
          -136 -8 42 440 40 232 -20 hstem
          30 64 87 49 vstem
          205 -55 callsubr
          -143 202 -77 callsubr
          endchar
        </CharString>
        <CharString name="section">
          106 -133 50 785 51 hstemhm
          82 79 26 76 -3 78 24 78 hintmask 11110100
          421 753 rmoveto
          -92 -142 -105 -101 -10 1 -9 2 -9 hvcurveto
          -62 -29 -46 -97 -54 vvcurveto
          hintmask 11101100
          -129 178 -71 -116 vvcurveto
          -56 -40 -50 -58 -33 -37 11 19 -26 vhcurveto
          -9 -4 -63 -37 0 vvcurveto
          -29 20 54 -10 34 hhcurveto
          98 138 117 96 9 -1 8 -1 8 hvcurveto
          54 25 50 98 51 vvcurveto
          hintmask 11110100
          143 -177 60 116 vvcurveto
          58 45 46 59 33 35 -8 -20 25 vhcurveto
          68 40 rlineto
          30 -19 -54 9 -34 hhcurveto
          -223 -260 rmoveto
          53 -91 111 -37 -126 vvcurveto
          -46 -19 -36 -18 -30 vhcurveto
          -53 81 -111 51 120 vvcurveto
          42 14 36 23 36 vhcurveto
          endchar
        </CharString>
        <CharString name="semicolon">
          -122 -95 -21 625 -20 hstem
          91 440 -76 callgsubr
          -43 -376 rmoveto
          -53 callsubr
          -9 -12 -23 -41 -55 vhcurveto
          12 -12 67 85 32 66 37 callsubr
        </CharString>
        <CharString name="seven">
          -12 -132 -21 578 74 9 -20 hstemhm
          hintmask 11000000
          268 499 rmoveto
          hintmask 10100000
          -71 -69 4 5 -69 hvcurveto
          -38 -81 rlineto
          hintmask 11000000
          -2 19 19 0 19 hhcurveto
          83 82 11 3 81 hvcurveto
          6 -13 -112 -162 -77 -201 -60 -206 rlinecurve
          9 -10 80 44 25 125 94 272 108 205 rlinecurve
          -8 10 rlineto
          -3 -41 -41 -1 -39 hhcurveto
          endchar
        </CharString>
        <CharString name="six">
          69 -9 57 271 57 193 73 hstem
          47 59 269 51 vstem
          456 642 rmoveto
          -242 -167 -254 -191 -115 57 -91 113 109 100 147 100 76 -37 62 -83 -53 -66 -37 -36 -38 hvcurveto
          7 -17 rlineto
          26 44 22 7 33 hhcurveto
          82 38 -47 -79 -67 -38 -78 -75 -91 -65 66 117 191 102 147 199 15 15 -1 -3 16 hvcurveto
          58 68 rlineto
          6 -15 -20 3 -20 hhcurveto
          endchar
        </CharString>
        <CharString name="slash">
          2 -62 -21 921 -20 hstem
          375 838 rmoveto
          -91 -330 -146 -320 -82 -217 41 -54 rcurveline
          89 244 151 341 87 286 rrcurveto
          endchar
        </CharString>
        <CharString name="space">
          -178 endchar
        </CharString>
        <CharString name="sterling">
          94 -37 58 -22 22 339 52 288 36 hstemhm
          449 67 hintmask 01111000
          29 361 rmoveto
          39 41 -1 40 hhcurveto
          4 hlineto
          -20 -152 -10 -74 -56 -58 -52 -33 rlinecurve
          -26 -17 -39 -25 -25 vvcurveto
          -4 2 -3 4 -1 vhcurveto
          13 13 30 18 35 hhcurveto
          hintmask 10111000
          77 81 -36 87 hhcurveto
          95 142 99 77 22 -7 20 -12 12 hvcurveto
          -65 -32 rlineto
          12 -16 5 -25 -16 vvcurveto
          -55 -32 -28 -88 -87 -80 14 19 -78 vhcurveto
          70 58 29 34 17 119 14 96 rcurveline
          46 2 45 5 45 12 41 32 rcurveline
          -170 hlineto
          23 162 rlineto
          83 12 32 43 49 hhcurveto
          30 37 -16 -32 43 hvcurveto
          54 38 rlineto
          33 -34 -37 13 -37 hhcurveto
          -101 -101 -102 -87 -12 hvcurveto
          -19 -137 rlineto
          -91 hlineto
          endchar
        </CharString>
        <CharString name="summation">
          199 -95 57 -57 78 -67 -21 816 39 5 -20 22 -20 hstemhm
          hintmask 10001000
          181 755 rmoveto
          -29 -21 -5 -14 -3 1 -4 2 -4 hvcurveto
          39 -76 100 -235 24 -76 -46 -89 -148 -219 -103 -127 8 -6 rcurveline
          5 39 47 3 55 hhcurveto
          hintmask 00110000
          49 162 -10 59 hhcurveto
          57 68 78 107 19 hvcurveto
          -16 10 rlineto
          hintmask 10010000
          -107 -51 -35 -21 -62 hhcurveto
          hintmask 01010000
          -81 -57 20 1 -130 hvcurveto
          39 67 184 275 21 34 -54 117 -79 204 -6 18 rrcurveto
          10 9 24 3 28 hhcurveto
          103 142 -7 -106 -7 -1 -7 -1 -8 hvcurveto
          20 hlineto
          0 25 125 13 44 vhcurveto
          0 0 1 1 vvcurveto
          hintmask 10000100
          4 -3 6 -9 vhcurveto
          hintmask 10010000
          -15 -35 -7 -108 hhcurveto
          hintmask 10001000
          -81 -78 5 -88 hhcurveto
          endchar
        </CharString>
        <CharString name="t">
          -207 11 -21 466 55 78 -20 hstem
          155 589 rmoveto
          -63 -36 -7 -47 -19 -2 -22 -3 -17 -3 rlinecurve
          -27 -42 rlineto
          2 25 33 2 21 hhcurveto
          -45 -288 -17 -79 -65 vvcurveto
          -13 1 -13 -29 callgsubr
          32 79 18 143 18 146 5 39 rcurveline
          36 hlineto
          31 15 -1 -1 20 hvcurveto
          53 48 rlineto
          3 -26 -19 1 -29 hhcurveto
          -25 -23 -1 -1 -25 hvcurveto
          endchar
        </CharString>
        <CharString name="thorn">
          -69 -239 -21 261 53 744 53 hstemhm
          70 184 0 72 hintmask 11101000
          318 31 callsubr
          -53 -54 -33 -47 -42 hvcurveto
          -44 -49 -32 -63 -8 -53 -24 -156 rcurveline
          -25 -162 -18 -160 -24 -157 -22 -145 -3 -21 -11 callgsubr
          -8 21 hhcurveto
          105 90 223 23 callgsubr
          13 86 8 36 16 102 10 66 11 109 39 61 rrcurveto
          27 17 23 17 31 -86 callgsubr
          hintmask 11110000
          -248 -781 rmoveto
          32 callsubr
          39 callsubr
          55 callgsubr
          vhcurveto
          endchar
        </CharString>
        <CharString name="three">
          -11 -115 55 246 35 245 48 hstem
          280 60 vstem
          218 57 callgsubr
          -38 -45 -19 -55 -93 hvcurveto
          11 -19 rlineto
          21 37 54 24 37 hhcurveto
          64 35 -56 -57 -58 -58 -40 -44 -29 hvcurveto
          -35 -23 10 -17 rlineto
          86 -4 40 -56 -60 vvcurveto
          -40 -16 -40 -29 -30 vhcurveto
          -11 -19 -39 -5 -39 hhcurveto
          -46 -66 23 25 -49 hvcurveto
          -36 -63 rlineto
          -24 39 67 -16 60 hhcurveto
          95 139 73 154 49 -36 60 -69 -5 -4 0 -1 -5 hvcurveto
          -1 3 rlineto
          61 41 56 69 58 vvcurveto
          85 -51 38 -68 vhcurveto
          endchar
        </CharString>
        <CharString name="threequarters">
          586 1 -21 156 40 222 50 -50 207 143 34 10 -20 hstemhm
          309 59 344 59 hintmask 11100111
          680 792 rmoveto
          -75 callgsubr
          -17 -318 -18 callsubr
          6 47 40 2 38 27 25 -1 25 -35 callgsubr
          hintmask 11101011
          -469 293 rmoveto
          -24 -32 -7 -29 -56 hvcurveto
          12 -21 rlineto
          11 24 30 12 23 hhcurveto
          24 18 -13 -39 -45 -32 -23 -34 -16 hvcurveto
          7 -21 rlineto
          45 -6 23 -33 -33 vvcurveto
          -47 -18 -24 -64 -36 -40 11 15 -25 vhcurveto
          -21 -42 rlineto
          -21 22 43 -13 27 hhcurveto
          70 92 67 78 hvcurveto
          hintmask 11011011
          28 -22 34 -44 -6 -5 -1 -1 -6 vhcurveto
          -2 4 rlineto
          42 24 38 44 36 vvcurveto
          49 -29 22 -44 vhcurveto
          endchar
        </CharString>
        <CharString name="threesuperior">
          -27 425 37 -37 188 137 32 hstemhm
          253 45 hintmask 10110000
          228 782 rmoveto
          -22 -25 -10 -31 -52 hvcurveto
          10 -14 rlineto
          12 23 27 11 22 hhcurveto
          29 13 -22 -29 -43 -36 -30 -31 -16 hvcurveto
          6 -11 rlineto
          41 -5 20 -32 -32 vvcurveto
          -45 -16 -23 -57 -32 -36 11 14 -22 vhcurveto
          -19 -40 rlineto
          -14 20 38 -8 24 hhcurveto
          63 82 47 81 hvcurveto
          hintmask 01110000
          27 -20 33 -39 -5 -5 -1 -1 -5 vhcurveto
          -2 4 rlineto
          38 23 33 42 34 vvcurveto
          47 -26 21 -39 vhcurveto
          endchar
        </CharString>
        <CharString name="tilde">
          -20 612 51 -35 -21 42 49 hstemhm
          hintmask 10000000
          370 695 -19 callgsubr
          hintmask 01100000
          -78 callgsubr
          hintmask 10000000
          -60 callsubr
        </CharString>
        <CharString name="trademark">
          233 418 35 -21 -21 277 33 51 callgsubr
          30 33 217 37 110 38 82 35 hintmask 10101111
          411 721 rmoveto
          -99 -32 -75 -76 hvcurveto
          37 26 rlineto
          91 36 1 21 vhcurveto
          11 17 -3 7 hhcurveto
          -1 -3 -39 -117 -21 -52 rrcurveto
          -48 -19 -13 -12 -28 hhcurveto
          -6 -8 1 2 -6 hvcurveto
          -23 -33 rlineto
          -4 4 7 -1 4 hhcurveto
          57 34 36 47 18 hvcurveto
          54 141 4 -1 rlineto
          -85 vlineto
          -48 0 -56 4 -40 vhcurveto
          hintmask 01011111
          4 -1 60 100 32 101 24 29 rlinecurve
          4 -2 rlineto
          -5 -45 -3 -46 -50 vvcurveto
          -25 0 -30 3 -29 vhcurveto
          29 17 34 23 23 24 -11 13 rcurveline
          -12 -14 -15 -12 -15 -9 rrcurveto
          -1 17 0 11 16 vvcurveto
          63 7 51 4 59 vhcurveto
          3 49 -37 -10 -65 -130 -26 -59 rlinecurve
          -4 1 rlineto
          3 1 11 14 vvcurveto
          58 -9 70 -1 37 vhcurveto
          hintmask 10101111
          2 -13 -15 2 -16 hhcurveto
          -241 -1 rmoveto
          -96 -44 -38 -40 hvcurveto
          -46 vlineto
          4 -2 29 25 rlineto
          26 vlineto
          37 21 10 29 vhcurveto
          25 14 -3 18 hhcurveto
          2 -5 -3 -3 -4 -7 -2 -17 rlinecurve
          -22 -160 -4 -28 -4 -28 -40 -13 rlinecurve
          -2 -13 rlineto
          4 11 -1 5 hhcurveto
          14 hlineto
          42 29 16 13 15 hvcurveto
          -9 10 rlineto
          -10 -12 -23 -4 -11 hhcurveto
          -2 6 10 10 4 11 5 31 rlinecurve
          8 51 4 74 20 67 rrcurveto
          69 hlineto
          26 27 -1 4 rlineto
          endchar
        </CharString>
        <CharString name="two">
          6 0 63 -43 -21 462 52 hstemhm
          298 55 hintmask 10110000
          242 513 rmoveto
          -58 -53 -19 -57 -76 hvcurveto
          11 -16 rlineto
          20 38 58 20 47 hhcurveto
          49 40 -21 -66 -38 -19 -43 -30 -38 hvcurveto
          -71 -91 -81 -66 -77 -62 -11 -9 -11 -6 -12 -6 7 -15 rcurveline
          hintmask 01110000
          324 -1 38 29 22 18 49 41 rlinecurve
          -8 15 rlineto
          hintmask 10110000
          -27 -38 -46 -12 -49 hhcurveto
          -174 hlineto
          -2 6 52 40 67 60 50 63 rlinecurve
          44 55 31 61 62 vvcurveto
          75 -54 28 -57 vhcurveto
          endchar
        </CharString>
        <CharString name="twosuperior">
          -80 445 35 260 35 hstem
          247 51 vstem
          224 775 rmoveto
          -44 -46 -21 -27 -35 hvcurveto
          5 -13 rlineto
          12 30 36 14 28 hhcurveto
          28 21 -13 -41 -72 -107 -102 -78 -61 hvcurveto
          3 -5 211 -1 69 55 -6 9 rlineto
          -19 -25 -28 -10 -32 hhcurveto
          -117 hlineto
          -2 6 rlineto
          69 52 94 90 82 vvcurveto
          48 -33 17 -41 vhcurveto
          endchar
        </CharString>
        <CharString name="u">
          25 11 -21 525 -96 callgsubr
          endchar
        </CharString>
        <CharString name="uacute">
          27 -74 callgsubr
          291 243 -102 callgsubr
        </CharString>
        <CharString name="ucircumflex">
          27 11 -21 775 -96 callgsubr
          144 250 -103 callsubr
        </CharString>
        <CharString name="udieresis">
          27 11 -21 788 -96 callgsubr
          -12 213 -105 callsubr
        </CharString>
        <CharString name="ugrave">
          26 -74 callgsubr
          -64 204 -97 callsubr
        </CharString>
        <CharString name="underscore">
          202 -55 54 hstem
          115 -1 21 callsubr
          489 7 callsubr
          endchar
        </CharString>
        <CharString name="v">
          -93 15 44 callgsubr
          hstemhm
          67 66 0 131 hintmask 11100000
          114 57 callgsubr
          -89 callgsubr
          85 61 rlineto
          2 -47 1 -45 -73 vvcurveto
          -109 0 -99 28 -95 vhcurveto
          30 callsubr
          hintmask 11010000
          8 callgsubr
          89 2 86 87 vvcurveto
          29 -7 15 -12 11 vhcurveto
          endchar
        </CharString>
        <CharString name="w">
          116 15 44 callgsubr
          hstemhm
          65 68 146 66 0 131 hintmask 11110000
          322 518 rmoveto
          -52 -55 4 -31 5 -22 1 -29 rlinecurve
          -31 -114 -65 20 callsubr
          89 2 86 87 vvcurveto
          29 -7 15 -12 11 vhcurveto
          -89 callgsubr
          85 61 rlineto
          2 -37 -1 -54 -44 vvcurveto
          -129 2 -105 28 -99 vhcurveto
          72 54 69 120 42 149 1 -20 rcurveline
          5 -109 -5 -99 28 -95 30 callsubr
          hintmask 11101000
          8 callgsubr
          66 2 64 64 vvcurveto
          53 vlineto
          41 -3 31 -20 2 vhcurveto
          endchar
        </CharString>
        <CharString name="x">
          -70 -5 43 -28 -21 31 -21 466 37 14 -20 hstemhm
          hintmask 10001000
          111 516 rmoveto
          -44 -6 -60 -56 -31 -46 5 -3 rcurveline
          18 14 47 34 17 8 28 -87 26 -78 27 -75 -28 -47 -30 -47 -24 -37 rrcurveto
          -31 -20 -24 -21 -55 hhcurveto
          hintmask 00110000
          -21 -17 -13 -18 -1 hhcurveto
          1 vlineto
          -1 -1 rlineto
          hintmask 10010000
          -3 11 10 -1 10 hhcurveto
          62 31 50 43 30 hvcurveto
          24 34 24 39 21 34 rrcurveto
          hintmask 01010000
          21 -77 22 -65 27 -64 44 6 60 56 31 46 -5 3 rcurveline
          -18 -14 -53 -37 -17 -8 -37 110 -14 50 -19 62 23 42 57 113 16 22 rrcurveto
          24 17 6 1 22 hhcurveto
          10 11 -1 -1 10 hvcurveto
          25 39 rlineto
          -1 hlineto
          -126 -16 -92 -115 -64 hvcurveto
          hintmask 10001000
          -18 65 -28 86 -29 70 rrcurveto
          endchar
        </CharString>
        <CharString name="y">
          -12 -215 57 673 -20 -93 callsubr
          endchar
        </CharString>
        <CharString name="yacute">
          -13 -215 57 -93 callsubr
          299 243 -102 callgsubr
        </CharString>
        <CharString name="ydieresis">
          -14 -215 57 898 -20 -93 callsubr
          -19 175 -105 callsubr
        </CharString>
        <CharString name="yen">
          153 0 57 -37 -21 228 50 83 51 289 36 -17 38 hstemhm
          -15 71 229 42 hintmask 10110111
          220 757 rmoveto
          -158 -71 -149 -154 -6 hvcurveto
          71 54 rlineto
          146 6 38 65 73 hhcurveto
          47 63 -120 -189 2 hvcurveto
          -93 hlineto
          -42 -49 rlineto
          39 38 -1 55 hhcurveto
          -16 -82 rlineto
          -88 hlineto
          -42 -50 rlineto
          30 51 -1 42 hhcurveto
          -23 -114 -27 -88 -81 -17 4 -8 rcurveline
          hintmask 01111011
          -14 callgsubr
          37 33 54 68 50 callsubr
          rlineto
          hintmask 10111011
          -21 -32 -49 16 callgsubr
          -3 8 52 48 20 34 15 78 rlinecurve
          57 45 10 11 45 hvcurveto
          21 31 rlineto
          -160 hlineto
          17 85 41 2 39 4 47 7 rlinecurve
          31 36 rlineto
          -151 hlineto
          105 22 89 184 92 hhcurveto
          19 20 -7 -12 24 hvcurveto
          53 42 rlineto
          9 -19 -20 4 -20 hhcurveto
          -126 -98 -106 -159 -64 hvcurveto
          -8 hlineto
          hintmask 10110111
          148 -6 -49 138 -52 hhcurveto
          endchar
        </CharString>
        <CharString name="z">
          -98 30 callgsubr
          8 -20 hstemhm
          hintmask 01010000
          -61 callgsubr
          hintmask 10010000
          -16 callsubr
          hintmask 00101000
          -49 callgsubr
          hhcurveto
          hintmask 10010000
          -46 -45 9 -28 hhcurveto
          endchar
        </CharString>
        <CharString name="zcaron">
          -110 30 callgsubr
          248 -70 callsubr
          -13 218 -77 callsubr
          endchar
        </CharString>
        <CharString name="zdotaccent">
          -98 30 callgsubr
          265 -70 callsubr
          3 203 18 callsubr
        </CharString>
        <CharString name="zero">
          95 2 51 424 43 hstem
          42 46 338 57 vstem
          276 477 rmoveto
          92 58 -84 -85 -110 -50 -142 -139 -3 hvcurveto
          -80 3 -69 65 116 vvcurveto
          112 89 128 99 vhcurveto
          41 43 rmoveto
          -154 -121 -155 -180 -98 41 -85 105 156 139 154 182 98 -47 84 -119 hvcurveto
          endchar
        </CharString>
      <CharString index="0">
        500 rmoveto
        -132 -59 -82 -126 -35 hvcurveto
        -15 -54 -10 -73 -67 vvcurveto
        -42 4 -40 -53 callgsubr
        -18 -107 -21 -53 -100 vvcurveto
        -13 0 -83 callsubr
        -1 callgsubr
        31 95 16 93 13 86 5 31 10 51 10 56 6 29 rcurveline
        5 -25 -29 0 -43 hhcurveto
        -178 -218 rmoveto
        134 17 14 33 110 hhcurveto
        -91 callsubr
        return
      </CharString>
      <CharString index="1">
        hstem
        5 callsubr
        vstem
        320 -69 callsubr
        -102 callsubr
        -1 3 rcurveline
        -35 -7 -50 -10 -16 -40 -64 -323 rcurveline
        -62 callgsubr
        12 callsubr
        return
      </CharString>
      <CharString index="2">
        rmoveto
        21 -18 16 -22 14 -17 51 55 rcurveline
        -15 25 -12 10 -21 17 rrcurveto
        135 -50 rmoveto
        22 -16 23 -27 11 -14 45 55 rcurveline
        -10 18 -15 20 -22 14 rrcurveto
        return
      </CharString>
      <CharString index="3">
        -186 4 3 -100 87 hhcurveto
        -73 callgsubr
        -18 hhcurveto
        -45 -13 61 308 148 9 134 20 40 hvcurveto
        3 -54 -56 6 -55 hhcurveto
        66 -144 rmoveto
        -23 -2 -67 -94 vvcurveto
        -32 0 -34 1 -37 vhcurveto
        -150 hlineto
        45 82 51 108 55 97 rrcurveto
        return
      </CharString>
      <CharString index="4">
        753 rmoveto
        -32 callgsubr
        -115 50 -98 113 -29 vhcurveto
        -32 callsubr
        125 -44 108 -106 31 vhcurveto
        -144 -702 rmoveto
        -103 38 -44 99 109 vvcurveto
        -23 callgsubr
        96 -42 38 -109 -117 -31 callsubr
        return
      </CharString>
      <CharString index="5">
        -104 callsubr
        endchar
      </CharString>
      <CharString index="6">
        -31 callgsubr
        6 callgsubr
        hintmask 10111100
        -106 callsubr
        hintmask 01111100
        -104 callgsubr
        return
      </CharString>
      <CharString index="7">
        474 rmoveto
        22 5 -18 -26 callgsubr
        106 72 hhcurveto
        34 40 rmoveto
        -100 -138 -169 -165 -82 28 -91 72 -17 hvcurveto
        -92 callsubr
        -84 -100 -72 -55 rrcurveto
        -48 35 -20 61 67 vvcurveto
        9 56 callsubr
        11 vhcurveto
        -42 callsubr
        vhcurveto
        return
      </CharString>
      <CharString index="8">
        3 39 -14 -13 21 hvcurveto
        51 -31 41 -49 31 -36 15 18 rcurveline
        -53 75 -31 41 -46 28 -27 16 -30 5 -29 -1 rrcurveto
        endchar
      </CharString>
      <CharString index="9">
        hvcurveto
        -95 callsubr
        return
      </CharString>
      <CharString index="10">
        hstem
        5 67 164 58 vstem
        209 -100 callgsubr
        return
      </CharString>
      <CharString index="11">
        -20 hstemhm
        42 58 0 151 hintmask 11100000
        -83 callgsubr
        hintmask 11010000
        -13 -71 -30 -125 -89 vvcurveto
        -9 1 -17 -29 callgsubr
        6 16 5 16 4 22 71 406 rcurveline
        -35 -13 -16 -40 -18 -47 -63 -163 -86 44 callsubr
        rrcurveto
        -4 20 -1 11 10 vvcurveto
        130 28 145 26 133 vhcurveto
        return
      </CharString>
      <CharString index="12">
        -71 -81 callsubr
        67 hlineto
        -35 -56 -7 -144 -72 callgsubr
        return
      </CharString>
      <CharString index="13">
        515 rmoveto
        -93 callgsubr
        return
      </CharString>
      <CharString index="14">
        -85 callsubr
        -58 callsubr
        return
      </CharString>
      <CharString index="15">
        13 callgsubr
        -95 callgsubr
        return
      </CharString>
      <CharString index="16">
        rmoveto
        -81 -38 -98 -152 -69 -12 callsubr
        -89 callgsubr
        66 48 3 -2 rlineto
        0 -56 -359 -35 vvcurveto
        -27 7 -19 -10 callgsubr
        72 45 callsubr
        -65 callgsubr
        20 116 52 149 126 vvcurveto
        28 52 callsubr
        return
      </CharString>
      <CharString index="17">
        rmoveto
        -74 -72 -12 -75 callsubr
        -30 callsubr
        return
      </CharString>
      <CharString index="18">
        -69 -11 -64 -91 0 vvcurveto
        -2 -11 return
      </CharString>
      <CharString index="19">
        -80 callgsubr
        -64 -52 -70 -109 hvcurveto
        -39 hlineto
        -33 -35 109 -195 118 -162 128 -139 rlinecurve
        return
      </CharString>
      <CharString index="20">
        rmoveto
        -29 1 -30 -5 -27 -16 -46 -28 -31 -41 -53 -75 return
      </CharString>
      <CharString index="21">
        hhcurveto
        30 19 -3 -3 14 -6 callgsubr
        3 -12 -21 2 -16 hhcurveto
        return
      </CharString>
      <CharString index="22">
        -53 callsubr
        -13 -12 -23 -41 -61 vhcurveto
        15 -11 67 90 29 69 2 16 -22 callsubr
        return
      </CharString>
      <CharString index="23">
        -27 -40 rmoveto
        41 -74 2 -60 -62 vvcurveto
        -115 -42 -86 -103 -44 vhcurveto
        -41 74 -2 60 62 -23 callsubr
        return
      </CharString>
      <CharString index="24">
        -62 callsubr
        -27 -204 rlineto
        -8 -57 -7 -57 -51 vvcurveto
        -32 3 -30 8 -27 vhcurveto
        -43 callgsubr
        return
      </CharString>
      <CharString index="25">
        -20 6 callgsubr
        hintmask 10111110
        -106 callsubr
        hintmask 01111110
        -104 callgsubr
        return
      </CharString>
      <CharString index="26">
        -56 -38 -62 -3 -91 4 -4 8 rcurveline
        50 48 17 34 9 39 30 169 27 178 9 callgsubr
        -1 3 rcurveline
        return
      </CharString>
      <CharString index="27">
        -21 -31 -48 16 callgsubr
        -63 callgsubr
        15 6 12 rrcurveto
        19 hlineto
        123 62 -72 -81 return
      </CharString>
      <CharString index="28">
        13 callgsubr
        -87 -36 -5 -70 callgsubr
        177 47 65 134 vhcurveto
        41 hlineto
        -40 -65 return
      </CharString>
      <CharString index="29">
        -48 -30 35 -45 hhcurveto
        -46 -18 -34 -22 -35 -36 5 -15 rcurveline
        18 21 48 24 29 hhcurveto
        return
      </CharString>
      <CharString index="30">
        10 64 rrcurveto
        75 30 -2 29 -67 callgsubr
        return
      </CharString>
      <CharString index="31">
        rmoveto
        28 -25 25 -34 16 -17 70 64 rcurveline
        -14 22 -30 41 -23 18 rrcurveto
        return
      </CharString>
      <CharString index="32">
        -192 -312 -225 -268 -160 -211 19 -21 rcurveline
        192 205 307 379 108 178 rrcurveto
        return
      </CharString>
      <CharString index="33">
        11 -21 hstemhm
        42 58 0 151 hintmask 11000000
        -83 callgsubr
        hintmask 10100000
        -13 -71 -30 -125 -89 vvcurveto
        -9 1 -17 -29 callgsubr
        6 16 5 16 4 22 71 406 rcurveline
        -35 -13 -16 -40 -18 -47 -63 -163 -86 44 callsubr
        rrcurveto
        -4 20 -1 11 10 vvcurveto
        130 28 145 26 133 vhcurveto
        return
      </CharString>
      <CharString index="34">
        46 28 20 13 -58 callgsubr
        return
      </CharString>
      <CharString index="35">
        -59 -317 -84 callsubr
        return
      </CharString>
      <CharString index="36">
        -34 callsubr
        hintmask 11101100
        -86 callsubr
        hintmask 11011100
        -79 -47 41 -95 hhcurveto
        return
      </CharString>
      <CharString index="37">
        -15 -26 -98 callgsubr
        return
      </CharString>
      <CharString index="38">
        rrcurveto
        -131 -17 -54 -23 -60 callgsubr
        125 86 96 194 28 hvcurveto
        return
      </CharString>
      <CharString index="39">
        rmoveto
        -27 -18 -18 -16 -25 -29 rrcurveto
        33 -38 14 -28 -24 vvcurveto
        -19 -14 -27 -24 -31 vhcurveto
        18 -15 63 81 29 72 2 14 rlinecurve
        -5 10 -28 44 -18 24 rrcurveto
        endchar
      </CharString>
      <CharString index="40">
        hhcurveto
        49 42 37 29 20 hvcurveto
        -5 4 rlineto
        -8 -36 -32 -2 -29 return
      </CharString>
      <CharString index="41">
        9 -18 -19 -72 -81 -63 -96 -39 hvcurveto
        42 -91 38 -111 41 -71 -92 callsubr
        -107 -113 -52 -29 -7 36 -41 143 -20 48 rrcurveto
        49 25 99 57 103 vvcurveto
        38 -21 12 -27 return
      </CharString>
      <CharString index="42">
        -134 -45 0 callsubr
        73 31 113 139 81 119 -29 callsubr
        -93 -81 -96 -63 -45 -1 callgsubr
        return
      </CharString>
      <CharString index="43">
        -11 -89 rrcurveto
        -129 -16 -37 -21 -90 hhcurveto
        -27 -34 7 6 -20 hvcurveto
        -39 -61 rlineto
        -4 16 30 -5 31 hhcurveto
        149 81 111 179 25 hvcurveto
        return
      </CharString>
      <CharString index="44">
        -34 callgsubr
        -52 callgsubr
        3 18 6 return
      </CharString>
      <CharString index="45">
        -84 -17 -103 -222 -96 hhcurveto
        -58 -22 45 77 69 23 143 49 267 hvcurveto
        6 callsubr
        return
      </CharString>
      <CharString index="46">
        139 506 rmoveto
        -53 -59 -59 -36 -25 hvcurveto
        6 -10 rlineto
        34 53 47 17 59 hhcurveto
        41 37 -10 -4 -2 -1 -3 -2 -3 hvcurveto
        -52 -77 -181 -260 -67 -93 10 -9 rcurveline
        12 29 38 5 27 hhcurveto
        return
      </CharString>
      <CharString index="47">
        -47 callgsubr
        15 16 -2 13 hhcurveto
        return
      </CharString>
      <CharString index="48">
        15 callgsubr
        65 47 return
      </CharString>
      <CharString index="49">
        51 45 -4 8 rcurveline
        -18 -30 -31 -10 return
      </CharString>
      <CharString index="50">
        134 86 125 return
      </CharString>
      <CharString index="51">
        -61 -317 rlinecurve
        -71 -14 -21 -39 callgsubr
        82 73 28 157 rlinecurve
        return
      </CharString>
      <CharString index="52">
        792 rmoveto
        -75 callgsubr
        -404 46 rmoveto
        -43 -24 -59 -36 27 callgsubr
        12 5 -15 -148 -31 -89 -12 -125 rrcurveto
        -4 vlineto
        -7 2 -5 3 -1 vhcurveto
        51 55 rlineto
        15 98 45 162 94 vvcurveto
        16 -3 10 -10 vhcurveto
        return
      </CharString>
      <CharString index="53">
        4 -8 79 36 31 65 22 127 rlinecurve
        76 442 -36 callgsubr
        rlinecurve
        -1 3 rlineto
        -27 callgsubr
        -44 -84 return
      </CharString>
      <CharString index="54">
        9 -31 vhcurveto
        100 88 63 96 72 121 3 -2 rcurveline
        return
      </CharString>
      <CharString index="55">
        30 -49 callsubr
        return
      </CharString>
      <CharString index="56">
        -68 -68 -45 -46 -58 hvcurveto
        9 -18 rlineto
        27 37 58 28 80 87 71 -58 116 hhcurveto
        50 47 16 51 41 hvcurveto
        -13 12 rlineto
        -16 -33 -33 -12 -34 -125 -89 61 -75 hhcurveto
        return
      </CharString>
      <CharString index="57">
        -13 callgsubr
        221 hmoveto
        -47 callsubr
      </CharString>
      <CharString index="58">
        -59 -47 16 -51 hhcurveto
        -21 -38 -1 -7 -16 hvcurveto
        -3 3 1 1 14 16 3 5 rlinecurve
        95 141 103 150 109 147 -6 3 rcurveline
        -15 -10 -35 -2 -27 return
      </CharString>
      <CharString index="59">
        -94 callgsubr
        55 47 rlineto
        281 73 91 141 59 hhcurveto
        13 13 -2 -8 9 hvcurveto
        33 56 rlineto
        7 -10 -12 3 -13 hhcurveto
        -85 -67 -109 -168 -66 21 callgsubr
        return
      </CharString>
      <CharString index="60">
        -44 hhcurveto
        -26 -20 4 4 -15 hvcurveto
        -38 -55 rlineto
        -4 return
      </CharString>
      <CharString index="61">
        -56 callgsubr
        27 155 5 130 30 return
      </CharString>
      <CharString index="62">
        rlineto
        57 -20 53 -38 -37 vvcurveto
        -14 -29 -1 -12 -27 -24 11 28 -15 vhcurveto
        -45 -39 rlineto
        -29 15 30 -11 28 hhcurveto
        66 58 46 48 29 -52 41 -38 10 hvcurveto
        return
      </CharString>
      <CharString index="63">
        754 rmoveto
        -294 -135 -182 -224 hvcurveto
        65 56 rlineto
        return
      </CharString>
      <CharString index="64">
        78 38 94 152 66 134 3 -2 rcurveline
        return
      </CharString>
      <CharString index="65">
        68 81 -1 60 hhcurveto
        16 1 36 31 65 55 -4 8 rcurveline
        return
      </CharString>
      <CharString index="66">
        -37 callgsubr
        12 callsubr
        return
      </CharString>
      <CharString index="67">
        -52 callsubr
        14 185 103 -86 callgsubr
        return
      </CharString>
      <CharString index="68">
        -15 callsubr
        54 -1 111 -2 return
      </CharString>
      <CharString index="69">
        -26 callsubr
        46 callsubr
        return
      </CharString>
      <CharString index="70">
        48 25 30 16 10 return
      </CharString>
      <CharString index="71">
        8 -37 callgsubr
        return
      </CharString>
      <CharString index="72">
        hhcurveto
        -7 -57 -7 -32 -2 -46 rrcurveto
        -7 0 -6 3 -1 vhcurveto
        48 45 8 38 -1 22 7 44 rlinecurve
        56 52 15 26 38 hvcurveto
        -9 21 rlineto
        -17 -42 -30 -4 -62 hhcurveto
        14 128 14 44 8 120 rrcurveto
        15 -6 6 -6 vhcurveto
        return
      </CharString>
      <CharString index="73">
        18 callgsubr
        19 34 7 39 rlinecurve
        return
      </CharString>
      <CharString index="74">
        2 16 6 19 4 28 -39 -14 -15 -48 -16 -38 -63 -163 -85 -127 return
      </CharString>
      <CharString index="75">
        -202 -53 -157 -247 -216 vvcurveto
        return
      </CharString>
      <CharString index="76">
        -8 55 -37 -21 286 49 375 56 return
      </CharString>
      <CharString index="77">
        126 36 112 161 137 vvcurveto
        return
      </CharString>
      <CharString index="78">
        1 callgsubr
        -71 callsubr
        -113 17 callgsubr
        return
      </CharString>
      <CharString index="79">
        161 -19 callgsubr
        hintmask 10101100
        -78 callgsubr
        hintmask 10110100
        -60 callsubr
      </CharString>
      <CharString index="80">
        -54 hlineto
        -107 -42 -10 -51 -43 hvcurveto
        1 -2 47 7 52 1 47 -2 rlinecurve
        return
      </CharString>
      <CharString index="81">
        -12 -50 -79 -88 -79 -52 hvcurveto
        114 18 41 return
      </CharString>
      <CharString index="82">
        33 -31 7 -24 vhcurveto
        -39 hlineto
        -75 -45 1 -4 rlineto
        78 14 -10 -18 -45 -171 -286 -48 -89 hvcurveto
        return
      </CharString>
      <CharString index="83">
        -19 callgsubr
        hintmask 10111000
        -78 callgsubr
        hintmask 11011000
        -60 callsubr
      </CharString>
      <CharString index="84">
        -21 callgsubr
        vhcurveto
        return
      </CharString>
      <CharString index="85">
        37 106 19 204 24 150 return
      </CharString>
      <CharString index="86">
        167 99 191 140 42 return
      </CharString>
      <CharString index="87">
        -86 -25 -72 -89 -46 -28 32 79 77 42 79 66 return
      </CharString>
      <CharString index="88">
        rmoveto
        -15 -20 -50 -17 -29 hhcurveto
        return
      </CharString>
      <CharString index="89">
        -33 callsubr
        17 29 -15 callgsubr
        return
      </CharString>
      <CharString index="90">
        84 14 34 40 48 hhcurveto
        31 36 -16 -30 40 hvcurveto
        59 50 rlineto
        24 -31 -34 11 -35 hhcurveto
        return
      </CharString>
      <CharString index="91">
        -20 -141 -18 -142 -69 callgsubr
        22 return
      </CharString>
      <CharString index="92">
        rmoveto
        4 callsubr
        9 callsubr
        return
      </CharString>
      <CharString index="93">
        -1 66 113 0 9 hhcurveto
        16 return
      </CharString>
      <CharString index="94">
        rmoveto
        -85 callgsubr
        return
      </CharString>
      <CharString index="95">
        -80 35 -49 38 58 rcurveline
        -31 32 -82 70 -66 38 66 41 85 78 32 37 rrcurveto
        return
      </CharString>
      <CharString index="96">
        -99 -54 9 -11 rcurveline
        78 45 63 29 72 42 -6 15 rcurveline
        -24 -15 -23 -16 -30 -17 -3 5 rcurveline
        29 37 -1 47 33 117 rrcurveto
        -20 21 22 return
      </CharString>
      <CharString index="97">
        16 -18 vhcurveto
        64 202 109 163 return
      </CharString>
      <CharString index="98">
        7 rcurveline
        -66 return
      </CharString>
      <CharString index="99">
        rmoveto
        -20 -64 -1 -92 -3 -60 14 -15 rcurveline
        18 50 37 75 23 87 rrcurveto
        return
      </CharString>
      <CharString index="100">
        851 rmoveto
        -3 callsubr
        return
      </CharString>
      <CharString index="101">
        hvcurveto
        41 54 rlineto
        return
      </CharString>
      <CharString index="102">
        21 callsubr
        -183 -184 vlineto
        -54 -54 rlineto
        238 -244 7 callsubr
        190 189 vlineto
        54 54 rlineto
        -243 hlineto
        return
      </CharString>
      <CharString index="103">
        39 -9 44 -22 30 -21 58 75 rcurveline
        14 -47 -45 6 -44 hhcurveto
        endchar
      </CharString>
      <CharString index="104">
        hstem
        152 15 callgsubr
        70 51 return
      </CharString>
      <CharString index="105">
        43 30 19 15 55 42 return
      </CharString>
      <CharString index="106">
        -3 2 rcurveline
        return
      </CharString>
      <CharString index="107">
        rmoveto
        -34 -50 -73 -82 -104 -73 102 -69 74 -12 callgsubr
        return
      </CharString>
      <CharString index="108">
        1 -12 vhcurveto
        return
      </CharString>
      <CharString index="109">
        24 150 -25 callsubr
        return
      </CharString>
      <CharString index="110">
        0 57 -37 -21 695 57 return
      </CharString>
      <CharString index="111">
        -149 -154 hvcurveto
        69 54 rlineto
        146 return
      </CharString>
      <CharString index="112">
        167 27 155 18 156 return
      </CharString>
      <CharString index="113">
        hstemhm
        60 69 329 70 return
      </CharString>
      <CharString index="114">
        8 39 rlinecurve
        13 65 return
      </CharString>
      <CharString index="115">
        -13 -1 -12 -13 -12 -23 12 -70 -23 vvcurveto
        -26 -110 -66 20 callsubr
        return
      </CharString>
      <CharString index="116">
        21 127 -36 callgsubr
        return
      </CharString>
      <CharString index="117">
        6 -21 464 51 return
      </CharString>
      <CharString index="118">
        369 -1 66 630 55 return
      </CharString>
      <CharString index="119">
        31 29 -17 -31 -16 -16 -13 -19 -6 hvcurveto
        endchar
      </CharString>
      <CharString index="120">
        751 rmoveto
        return
      </CharString>
      <CharString index="121">
        -142 57 136 39 573 55 -4 45 return
      </CharString>
      <CharString index="122">
        515 rmoveto
        -89 callgsubr
        return
      </CharString>
      <CharString index="123">
        -16 -48 hhcurveto
        -61 hlineto
        return
      </CharString>
      <CharString index="124">
        -67 -48 -1 callgsubr
        return
      </CharString>
      <CharString index="125">
        -4 8 50 48 return
      </CharString>
      <CharString index="126">
        32 callgsubr
        -22 hhcurveto
        endchar
      </CharString>
      <CharString index="127">
        4 -8 rcurveline
        17 callsubr
        136 return
      </CharString>
      <CharString index="128">
        hvcurveto
        -7 hlineto
        14 92 12 101 13 84 rrcurveto
        return
      </CharString>
      <CharString index="129">
        -9 callgsubr
        -92 return
      </CharString>
      <CharString index="130">
        33 callgsubr
        -80 -49 -67 -84 -50 -92 -3 1 rcurveline
        return
      </CharString>
      <CharString index="131">
        214 -47 -55 307 -104 hhcurveto
        endchar
      </CharString>
      <CharString index="132">
        rlineto
        13 -14 -27 14 -37 hhcurveto
        return
      </CharString>
      <CharString index="133">
        -21 258 -20 hstem
        return
      </CharString>
      <CharString index="134">
        -34 -36 7 -11 rcurveline
        24 18 48 28 return
      </CharString>
      <CharString index="135">
        -58 rcurveline
        35 49 74 80 102 69 -103 return
      </CharString>
      <CharString index="136">
        3 -2 rcurveline
        -3 -5 -3 -11 -1 -11 return
      </CharString>
      <CharString index="137">
        -10 50 -32 32 -32 48 396 54 return
      </CharString>
      <CharString index="138" raw="1">
        8a1db9f7 0697f768 a10ade98 0b
      </CharString>
      <CharString index="139">
        hhcurveto
        40 25 -8 -8 18 -6 callgsubr
        9 -16 -31 6 return
      </CharString>
      <CharString index="140">
        135 82 -7 38 -24 39 hvcurveto
        return
      </CharString>
      <CharString index="141">
        -108 -116 -94 -98 -16 hvcurveto
        return
      </CharString>
      <CharString index="142">
        11 -21 808 53 hstem
        return
      </CharString>
      <CharString index="143">
        51 -14 49 hstemhm
        return
      </CharString>
      <CharString index="144">
        0 -37 0 -25 -12 vhcurveto
        8 -30 -54 4 -37 hhcurveto
        return
      </CharString>
      <CharString index="145">
        0 56 -45 -21 705 55 return
      </CharString>
      <CharString index="146">
        54 237 -20 hstem
        286 54 vstem
        340 return
      </CharString>
      <CharString index="147">
        13 callgsubr
        -195 -181 -295 -230 return
      </CharString>
      <CharString index="148">
        -195 57 146 49 656 39 hstem
        return
      </CharString>
      <CharString index="149">
        -92 -21 113 34 callsubr
        return
      </CharString>
      <CharString index="150">
        hlineto
        13 90 10 89 8 81 rrcurveto
        endchar
      </CharString>
      <CharString index="151">
        -21 525 -20 return
      </CharString>
      <CharString index="152">
        65 517 75 return
      </CharString>
      <CharString index="153">
        56 59 rlineto
        return
      </CharString>
      <CharString index="154">
        -110 vvcurveto
        return
      </CharString>
      <CharString index="155">
        152 3 121 -15 152 12 return
      </CharString>
      <CharString index="156">
        rmoveto
        23 149 -1 86 55 39 rrcurveto
        return
      </CharString>
      <CharString index="157">
        66 188 return
      </CharString>
      <CharString index="158">
        1 -20 hstemhm
        return
      </CharString>
      <CharString index="159">
        -201 -73 -104 -252 -30 hvcurveto
        return
      </CharString>
      <CharString index="160">
        50 callgsubr
        66 vstem
        return
      </CharString>
      <CharString index="161">
        -247 -21 53 53 return
      </CharString>
      <CharString index="162">
        -12 -39 7 9 -12 return
      </CharString>
      <CharString index="163">
        -57 -307 return
      </CharString>
      <CharString index="164">
        514 rmoveto
        return
      </CharString>
</ttFont>
